<svg width="11" height="23" viewBox="0 0 11 23" fill="none" xmlns="http://www.w3.org/2000/svg">
<g opacity="0.7">
<path d="M2.31161 22.3309C2.17671 20.9502 2.04125 19.5696 1.90522 18.1889C1.76806 16.8011 1.63033 15.4135 1.49204 14.0261C1.35337 12.6319 1.21508 11.2377 1.07717 9.84344C1.03365 9.40201 0.993518 8.96057 0.950562 8.505H10.0551C10.0139 8.94588 9.97544 9.37318 9.93305 9.79992C9.79589 11.1941 9.6576 12.5883 9.51818 13.9826C9.38102 15.3704 9.24367 16.7582 9.10613 18.146C8.96897 19.5402 8.83314 20.9344 8.69861 22.3286L2.31161 22.3309Z" fill="#5C5D61"/>
<path d="M0.198792 7.60126C0.333879 7.05469 0.470098 6.52734 0.594446 5.99546C0.630621 5.83946 0.733488 5.86038 0.839185 5.86038H5.54409C5.91091 5.86038 6.27888 5.86038 6.64458 5.86038C6.7141 5.86038 6.78362 5.85472 6.87688 5.8502V5.51107C6.87688 4.71976 6.88197 3.92845 6.87349 3.13714C6.86802 3.02274 6.89098 2.90878 6.94029 2.80541C6.9896 2.70205 7.06375 2.61251 7.1561 2.54479C7.99263 1.86652 8.81898 1.1696 9.64929 0.481163C9.72058 0.419401 9.79613 0.362739 9.87538 0.311596C10.0755 0.188943 10.271 0.216077 10.4214 0.378295C10.493 0.455454 10.5342 0.556053 10.5371 0.661313C10.54 0.766572 10.5045 0.869296 10.4372 0.950299C10.3866 1.01127 10.3298 1.06678 10.2676 1.11591C9.47633 1.7727 8.68163 2.42553 7.89371 3.08627C7.81997 3.14666 7.77222 3.23305 7.76032 3.32762C7.75015 4.13306 7.75467 4.93906 7.75524 5.7445C7.75737 5.78029 7.76133 5.81595 7.76711 5.85133H10.3801L10.8216 7.59843L0.198792 7.60126Z" fill="#5C5D61"/>
</g>
</svg>
