<svg width="11" height="23" viewBox="0 0 11 23" fill="none" xmlns="http://www.w3.org/2000/svg">
<path d="M2.1716 22.9155C2.0367 21.5348 1.90124 20.1542 1.76521 18.7735C1.62805 17.3857 1.49032 15.9981 1.35203 14.6107C1.21336 13.2165 1.07507 11.8223 0.937156 10.428C0.893634 9.9866 0.853504 9.54517 0.810547 9.0896H9.91513C9.87387 9.53047 9.83543 9.95777 9.79304 10.3845C9.65588 11.7787 9.51759 13.1729 9.37817 14.5672C9.24101 15.955 9.10366 17.3428 8.96612 18.7306C8.82896 20.1248 8.69312 21.519 8.5586 22.9132L2.1716 22.9155Z" fill="white"/>
<path d="M0.0588379 8.18585C0.193926 7.63929 0.330144 7.11193 0.454493 6.58006C0.490667 6.42406 0.593535 6.44497 0.699231 6.44497H5.40413C5.77096 6.44497 6.13893 6.44497 6.50462 6.44497C6.57415 6.44497 6.64367 6.43931 6.73693 6.43479V6.09566C6.73693 5.30435 6.74201 4.51304 6.73353 3.72173C6.72807 3.60734 6.75102 3.49337 6.80034 3.39001C6.84965 3.28665 6.92379 3.19711 7.01614 3.12938C7.85267 2.45112 8.67902 1.7542 9.50933 1.06576C9.58062 1.004 9.65617 0.947334 9.73542 0.896191C9.93551 0.773538 10.1311 0.800672 10.2814 0.96289C10.3531 1.04005 10.3942 1.14065 10.3971 1.24591C10.4 1.35117 10.3645 1.45389 10.2973 1.53489C10.2467 1.59586 10.1898 1.65137 10.1277 1.70051C9.33638 2.35729 8.54168 3.01012 7.75376 3.67087C7.68001 3.73125 7.63226 3.81765 7.62037 3.91222C7.6102 4.71766 7.61472 5.52366 7.61528 6.3291C7.61742 6.36488 7.62138 6.40054 7.62715 6.43592H10.2402L10.6816 8.18303L0.0588379 8.18585Z" fill="white"/>
</svg>
