<svg width="19" height="20" viewBox="0 0 19 20" fill="none" xmlns="http://www.w3.org/2000/svg">
<g opacity="0.7">
<path d="M0.181458 13.2148C0.245289 12.8689 0.288007 12.5176 0.377862 12.1785C0.625452 11.2168 1.13006 10.3398 1.83813 9.64055C2.8889 8.591 3.94146 7.54356 4.99583 6.49823C5.02136 6.47234 5.04984 6.44937 5.10041 6.40588C7.78101 9.08646 10.4624 11.7677 13.1447 14.4496C13.128 14.4765 13.1092 14.502 13.0882 14.5258C12.008 15.6008 10.939 16.6806 9.84752 17.7409C8.90331 18.6581 7.75826 19.1657 6.44333 19.2928C6.40219 19.2998 6.36165 19.3099 6.32205 19.3231H5.47653C5.43048 19.3095 5.38356 19.2991 5.3361 19.2918C3.01558 19.0871 1.00685 17.4199 0.400938 15.181C0.302736 14.8248 0.253637 14.4559 0.182441 14.0924L0.181458 13.2148Z" fill="#5C5D61"/>
<path d="M14.1262 13.4851C11.4315 10.8042 8.74045 8.12672 6.05298 5.45266C6.08293 5.41992 6.1227 5.37496 6.16493 5.33294C7.18296 4.31954 8.20099 3.30663 9.21902 2.29421C10.3975 1.12738 11.8214 0.568397 13.4766 0.600157C16.1973 0.651951 18.5551 2.72322 18.9337 5.40477C19.1984 7.27961 18.6803 8.91796 17.3502 10.2783C16.3073 11.344 15.2388 12.3847 14.1822 13.4367C14.165 13.4538 14.1458 13.4704 14.1262 13.4851ZM13.1383 2.08557C12.9679 2.10951 12.637 2.13443 12.3163 2.20723C11.5583 2.37507 10.8656 2.75836 10.3223 3.31054C10.2241 3.40405 10.1577 3.52569 10.1322 3.65853C10.1066 3.79137 10.1233 3.92882 10.1799 4.05178C10.2329 4.17272 10.321 4.27512 10.4329 4.34583C10.5448 4.41653 10.6754 4.45231 10.8079 4.44854C11.0176 4.44512 11.1742 4.34202 11.3245 4.20423C12.1101 3.49377 13.0214 3.26705 14.0486 3.52016C14.5396 3.64183 14.955 3.90324 15.3253 4.24869C15.7181 4.61467 16.3191 4.45049 16.4502 3.94819C16.5169 3.69069 16.4423 3.46739 16.2503 3.28269C15.4264 2.49503 14.4385 2.10756 13.1383 2.08557Z" fill="#5C5D61"/>
</g>
</svg>
