<svg width="19" height="19" viewBox="0 0 19 19" fill="none" xmlns="http://www.w3.org/2000/svg">
<path d="M0 12.6158C0.0638316 12.2699 0.10655 11.9186 0.196405 11.5795C0.443995 10.6178 0.948603 9.74082 1.65667 9.04156C2.70744 7.992 3.76 6.94456 4.81437 5.89923C4.8399 5.87334 4.86838 5.85037 4.91896 5.80688C7.59956 8.48746 10.281 11.1687 12.9632 13.8506C12.9466 13.8775 12.9277 13.903 12.9067 13.9268C11.8265 15.0018 10.7576 16.0816 9.66606 17.1419C8.72185 18.0591 7.5768 18.5667 6.26187 18.6938C6.22074 18.7008 6.18019 18.7109 6.14059 18.7241H5.29507C5.24902 18.7105 5.20211 18.7001 5.15464 18.6928C2.83412 18.4881 0.82539 16.8209 0.219481 14.582C0.121279 14.2258 0.0721797 13.8569 0.000982983 13.4934L0 12.6158Z" fill="white"/>
<path d="M13.9447 12.8862C11.25 10.2053 8.55893 7.52784 5.87146 4.85378C5.90141 4.82104 5.94119 4.77609 5.98341 4.73407C7.00144 3.72066 8.01947 2.70776 9.03751 1.69533C10.2159 0.528505 11.6399 -0.0304801 13.2951 0.00128032C16.0158 0.0530742 18.3736 2.12434 18.7522 4.8059C19.0168 6.68074 18.4988 8.31908 17.1687 9.67941C16.1258 10.7451 15.0573 11.7859 14.0007 12.8379C13.9835 12.855 13.9643 12.8716 13.9447 12.8862ZM12.9568 1.48669C12.7864 1.51063 12.4554 1.53555 12.1348 1.60836C11.3768 1.77619 10.6841 2.15948 10.1408 2.71166C10.0426 2.80518 9.97616 2.92681 9.95064 3.05965C9.92512 3.19249 9.94182 3.32994 9.99842 3.4529C10.0514 3.57384 10.1395 3.67625 10.2514 3.74695C10.3633 3.81766 10.4939 3.85343 10.6264 3.84966C10.8361 3.84624 10.9927 3.74314 11.143 3.60535C11.9286 2.8949 12.8399 2.66818 13.8671 2.92128C14.3581 3.04295 14.7735 3.30436 15.1437 3.64982C15.5365 4.01579 16.1375 3.85162 16.2686 3.34931C16.3354 3.09181 16.2608 2.86851 16.0688 2.68381C15.2449 1.89615 14.257 1.50868 12.9568 1.48669Z" fill="white"/>
</svg>
