<svg width="23" height="15" viewBox="0 0 23 15" fill="none" xmlns="http://www.w3.org/2000/svg">
<g opacity="0.7">
<path d="M0.94696 11.0518C1.09376 10.6797 1.37437 10.5589 1.76226 10.5595C8.43149 10.5651 15.1009 10.5666 21.7705 10.564C21.8618 10.5622 21.9531 10.5669 22.0438 10.5781C22.1952 10.5992 22.3336 10.6748 22.4333 10.7907C22.533 10.9066 22.587 11.0548 22.5852 11.2076C22.5831 11.3641 22.5227 11.5142 22.4157 11.6286C22.3088 11.7429 22.1631 11.8132 22.0071 11.8259C21.8473 11.8406 21.6406 11.7886 21.5396 11.871C21.4385 11.9535 21.4492 12.1658 21.4041 12.3193C21.2316 12.909 20.8727 13.427 20.3812 13.7955C19.8897 14.1641 19.2919 14.3635 18.6775 14.3638C14.0718 14.3717 9.46605 14.3717 4.8603 14.3638C3.46006 14.3638 2.30316 13.3729 2.0536 11.9958C2.0282 11.8552 1.97173 11.8174 1.84752 11.831C1.81985 11.831 1.79106 11.831 1.76339 11.831C1.37211 11.8699 1.09489 11.718 0.94696 11.3471V11.0518Z" fill="#5C5D61"/>
<path d="M15.0674 9.28784H8.4614C8.49753 8.83953 8.53084 8.4059 8.56698 7.97172C8.68893 6.50372 8.82049 5.0408 8.93115 3.57393C8.98761 2.8484 9.08473 2.14264 9.56013 1.55431C10.3037 0.63399 11.2726 0.276589 12.4154 0.552121C13.5683 0.829911 14.2877 1.604 14.4994 2.76823C14.6332 3.50618 14.6535 4.26502 14.7185 5.0154C14.8314 6.32643 14.9387 7.63803 15.0482 8.94963C15.0595 9.05409 15.0623 9.1591 15.0674 9.28784Z" fill="#5C5D61"/>
<path d="M15.151 0.958055C16.2424 0.749713 17.515 1.43628 17.974 2.54688C18.2191 3.14086 18.3648 3.77718 18.542 4.39825C18.9881 5.95998 19.4262 7.52283 19.8666 9.08456C19.8836 9.14102 19.8971 9.20425 19.9174 9.28612C19.8356 9.2912 19.7684 9.29911 19.7012 9.29911C18.6589 9.29911 17.6172 9.29516 16.5749 9.30363C16.392 9.30363 16.3417 9.25338 16.3276 9.07044C16.2 7.45 16.06 5.83011 15.9239 4.21023C15.8861 3.75854 15.8675 3.31024 15.8071 2.86419C15.7624 2.53019 15.6852 2.20135 15.5767 1.88233C15.466 1.56784 15.2978 1.27198 15.151 0.958055Z" fill="#5C5D61"/>
<path d="M7.18936 9.28903H3.61987C3.7328 8.88815 3.83895 8.50534 3.94679 8.12253C4.42633 6.41777 4.90644 4.71357 5.38712 3.00994C5.73718 1.7757 6.70267 1.00162 7.97869 0.926521C8.11703 0.918617 8.25649 0.936681 8.41684 0.944021C8.31521 1.12696 8.22318 1.28279 8.13962 1.44483C7.8048 2.09075 7.72518 2.79426 7.66872 3.50568C7.5366 5.15379 7.39489 6.80077 7.25712 8.44832C7.23454 8.72159 7.21308 8.99486 7.18936 9.28903Z" fill="#5C5D61"/>
</g>
</svg>
