<svg width="23" height="14" viewBox="0 0 23 14" fill="none" xmlns="http://www.w3.org/2000/svg">
<path d="M0.807129 10.6361C0.953929 10.2641 1.23454 10.1432 1.62243 10.1438C8.29166 10.1494 14.9611 10.151 21.6307 10.1483C21.722 10.1465 21.8133 10.1512 21.904 10.1624C22.0553 10.1836 22.1938 10.2592 22.2935 10.375C22.3931 10.4909 22.4472 10.6391 22.4454 10.792C22.4433 10.9485 22.3828 11.0986 22.2759 11.2129C22.169 11.3272 22.0233 11.3976 21.8672 11.4102C21.7075 11.4249 21.5008 11.373 21.3997 11.4554C21.2987 11.5378 21.3094 11.7501 21.2642 11.9037C21.0918 12.4934 20.7329 13.0113 20.2414 13.3799C19.7498 13.7485 19.1521 13.9479 18.5377 13.9482C13.932 13.9561 9.32622 13.9561 4.72047 13.9482C3.32023 13.9482 2.16333 12.9573 1.91377 11.5802C1.88836 11.4396 1.8319 11.4018 1.70769 11.4153C1.68002 11.4153 1.65123 11.4153 1.62356 11.4153C1.23228 11.4543 0.955058 11.3024 0.807129 10.9314V10.6361Z" fill="white"/>
<path d="M14.9275 8.87231H8.32153C8.35767 8.424 8.39098 7.99038 8.42712 7.55619C8.54907 6.08819 8.68063 4.62527 8.79129 3.15841C8.84775 2.43288 8.94487 1.72711 9.42027 1.13878C10.1639 0.218463 11.1328 -0.138939 12.2755 0.136593C13.4285 0.414384 14.1478 1.18847 14.3595 2.35271C14.4933 3.09066 14.5137 3.84949 14.5786 4.59987C14.6915 5.9109 14.7988 7.22251 14.9083 8.53411C14.9196 8.63856 14.9224 8.74358 14.9275 8.87231Z" fill="white"/>
<path d="M15.0111 0.542528C16.1025 0.334185 17.3751 1.02076 17.8342 2.13135C18.0792 2.72533 18.2249 3.36165 18.4022 3.98273C18.8482 5.54445 19.2864 7.10731 19.7268 8.66903C19.7437 8.72549 19.7573 8.78872 19.7776 8.87059C19.6957 8.87567 19.6285 8.88358 19.5613 8.88358C18.5191 8.88358 17.4773 8.87963 16.4351 8.8881C16.2521 8.8881 16.2019 8.83785 16.1878 8.65491C16.0602 7.03447 15.9201 5.41459 15.7841 3.79471C15.7462 3.34301 15.7276 2.89471 15.6672 2.44867C15.6225 2.11467 15.5454 1.78582 15.4368 1.4668C15.3262 1.15231 15.1579 0.856454 15.0111 0.542528Z" fill="white"/>
<path d="M7.04947 8.8735H3.47998C3.5929 8.47262 3.69905 8.08981 3.80689 7.707C4.28644 6.00224 4.76655 4.29805 5.24723 2.59442C5.59729 1.36017 6.56277 0.586088 7.8388 0.510994C7.97713 0.503089 8.11659 0.521154 8.27694 0.528494C8.17531 0.711429 8.08329 0.867262 7.99972 1.02931C7.66491 1.67523 7.58529 2.37874 7.52883 3.09015C7.39671 4.73826 7.255 6.38524 7.11723 8.03279C7.09465 8.30606 7.07319 8.57934 7.04947 8.8735Z" fill="white"/>
</svg>
