<svg width="21" height="17" viewBox="0 0 21 17" fill="none" xmlns="http://www.w3.org/2000/svg">
<path d="M0.447998 7.3806C0.496933 6.58173 0.481602 5.77284 0.60895 4.98635C0.886049 3.27659 1.92665 2.12633 3.44833 1.37757C4.50425 0.858751 5.63446 0.596392 6.79769 0.501471C9.95367 0.243828 12.974 0.796259 15.8635 2.08094C18.1747 3.11033 19.7447 4.83365 20.6255 7.1937C20.8577 7.83812 20.9739 8.51859 20.9686 9.20355C20.9757 10.3237 20.9633 11.4386 20.7004 12.5352C20.4239 13.6861 19.9581 14.7349 19.0578 15.542C18.1976 16.3156 17.1624 16.6434 16.0268 16.6793C14.3477 16.7318 12.8325 16.2006 11.4164 15.341C10.6631 14.8798 9.9633 14.3364 9.3299 13.7208C8.93842 13.3435 8.52808 12.9857 8.12127 12.6237C7.47274 12.0465 6.678 11.9227 5.85496 11.9468C4.24484 11.9928 2.75381 11.6179 1.38542 10.7618C0.787591 10.388 0.487499 9.85208 0.488089 9.14695C0.488089 8.55738 0.488089 7.96781 0.488089 7.37824L0.447998 7.3806ZM20.29 9.1387C20.2411 8.78496 20.2311 8.41765 20.1373 8.07276C19.5236 5.73746 18.1375 4.00117 15.9809 2.9252C13.5949 1.73544 11.0397 1.20424 8.38246 1.15118C6.95334 1.12229 5.54662 1.27322 4.21065 1.82034C2.7603 2.41404 1.69317 3.3774 1.30995 4.95922C1.06882 5.95383 1.19558 6.89361 1.90719 7.66065C2.50076 8.30171 3.25838 8.76819 4.09804 9.00959C4.79845 9.21535 5.5195 9.22537 6.23995 9.23186C7.55411 9.24483 8.75153 9.61212 9.78741 10.4275C10.2764 10.8159 10.7429 11.2318 11.1847 11.6733C11.9346 12.4167 12.7671 13.0334 13.7358 13.4567C14.7569 13.9024 15.8052 14.0923 16.913 13.7916C18.4087 13.3854 20.3024 11.4622 20.29 9.1387Z" fill="white"/>
<path d="M15.7887 13.2806C14.8637 13.2305 14.0353 12.9145 13.2836 12.4198C12.7479 12.0589 12.2371 11.6622 11.7549 11.2324C11.0633 10.6287 10.433 9.95247 9.63888 9.47315C8.56673 8.81562 7.32758 8.48152 6.0702 8.51096C5.23301 8.52688 4.39582 8.49799 3.64883 8.07291C3.21172 7.83232 2.80698 7.53714 2.44434 7.19445C1.90016 6.66383 1.82352 5.96402 1.97268 5.24474C2.25921 3.84392 3.18602 3.00436 4.44888 2.47906C5.60857 1.99796 6.83252 1.85175 8.07534 1.85941C10.7496 1.87533 13.3225 2.3806 15.7256 3.5845C17.6712 4.56024 18.9341 6.13381 19.4399 8.26039C19.9287 10.3204 18.6434 12.546 16.6754 13.1179C16.3865 13.2016 16.0835 13.2275 15.7887 13.2806ZM15.3224 7.15554C14.3301 7.15141 13.5654 7.91726 13.5642 8.91777C13.5642 9.90884 14.3112 10.6717 15.297 10.6865C16.2828 10.7012 17.0551 9.9395 17.0657 8.93487C17.0727 8.70234 17.0327 8.4708 16.948 8.25412C16.8633 8.03745 16.7358 7.84011 16.5729 7.67394C16.4101 7.50778 16.2155 7.37621 16.0006 7.28713C15.7857 7.19805 15.555 7.15329 15.3224 7.15554Z" fill="white"/>
<path d="M15.3088 7.86109C15.4485 7.86055 15.5869 7.88759 15.7161 7.94068C15.8454 7.99377 15.9628 8.07185 16.0618 8.17045C16.1608 8.26905 16.2393 8.38623 16.2929 8.51525C16.3465 8.64427 16.3741 8.78261 16.3741 8.92232C16.3724 9.20103 16.2612 9.46787 16.0644 9.66522C15.8676 9.86258 15.601 9.97459 15.3223 9.97706C15.1826 9.9776 15.0442 9.95056 14.9149 9.89747C14.7857 9.84438 14.6682 9.7663 14.5692 9.6677C14.4703 9.5691 14.3917 9.45193 14.3381 9.3229C14.2845 9.19388 14.257 9.05554 14.257 8.91583C14.2587 8.63713 14.3699 8.37028 14.5667 8.17293C14.7635 7.97557 15.0301 7.86356 15.3088 7.86109Z" fill="white"/>
</svg>
