<svg width="20" height="20" viewBox="0 0 20 20" fill="none" xmlns="http://www.w3.org/2000/svg">
<path d="M19.4154 10.0718C19.1106 12.3014 18.2329 14.2246 16.7581 15.8706C15.9724 16.7506 15.038 17.4482 14.0324 18.0548C13.7827 18.1959 13.5413 18.3512 13.3095 18.5201C13.209 18.609 13.1422 18.7299 13.1204 18.8624C13.089 19.0532 13.1154 19.2552 13.1109 19.4488C13.1053 19.6969 12.9812 19.8254 12.7326 19.8254C10.7445 19.8277 8.75635 19.8277 6.76821 19.8254C6.52016 19.8254 6.3967 19.6963 6.39164 19.4477C6.38772 19.2659 6.38323 19.0835 6.39164 18.9017C6.40175 18.7013 6.3069 18.5784 6.14528 18.4752C5.52796 18.079 4.88819 17.7091 4.30174 17.2697C1.91048 15.4778 0.517017 13.0871 0.0966797 10.129C0.0978993 10.1157 0.100342 10.1026 0.103976 10.0897C0.1528 10.1195 0.198259 10.1459 0.239788 10.1728C1.09281 10.7654 2.05807 11.0909 3.05195 11.3401C5.60316 11.9793 8.20095 12.1555 10.8206 12.0769C12.6075 12.0208 14.3803 11.8379 16.1228 11.4237C17.133 11.1835 18.1218 10.885 19.0152 10.335C19.1404 10.2598 19.2599 10.1745 19.4154 10.0718Z" fill="white"/>
<path d="M8.74021 6.05093C9.63812 6.0644 10.5327 6.05093 11.4267 6.09639C13.4313 6.19235 15.4157 6.4331 17.3192 7.10261C17.8165 7.27715 18.2935 7.52351 18.7559 7.77942C18.9804 7.904 19.1746 8.10828 19.3384 8.312C19.5629 8.59259 19.5657 8.88779 19.3384 9.16109C19.1527 9.38727 18.9334 9.58356 18.688 9.74305C17.8322 10.2869 16.8697 10.5669 15.8932 10.7908C13.4481 11.352 10.967 11.4912 8.4669 11.3991C6.65872 11.3324 4.86794 11.1298 3.11419 10.6696C2.36892 10.4732 1.63487 10.238 0.968732 9.84182C0.709032 9.69101 0.470177 9.50687 0.258253 9.29409C-0.0936188 8.93268 -0.0784664 8.54994 0.258253 8.17506C0.583748 7.81365 1.00409 7.58917 1.43677 7.39275C2.5356 6.89778 3.70064 6.6357 4.88084 6.4303C4.94987 6.41795 5.01778 6.4028 5.08625 6.38877L5.08063 6.3854C5.11655 6.43703 5.15303 6.4881 5.18783 6.54029C5.45552 6.94211 5.45552 7.17613 5.18783 7.57907C5.08737 7.73003 4.98074 7.87819 4.88926 8.03421C4.78972 8.19537 4.72845 8.3772 4.71016 8.56575C4.69187 8.75429 4.71704 8.94451 4.78376 9.1218C4.91339 9.48827 5.21083 9.71331 5.44429 9.94621L5.96059 9.48153C5.8259 9.35975 5.69627 9.25369 5.57954 9.13415C5.34047 8.88891 5.31297 8.62458 5.49311 8.33613C5.59694 8.16777 5.70693 8.00839 5.81636 7.8462C5.97687 7.60769 6.07507 7.34112 6.04477 7.05716C6.01783 6.80125 5.94881 6.55208 5.8955 6.28046L6.4724 6.22097L6.46735 6.21704C6.60934 6.44938 6.74795 6.68508 6.89442 6.91349C7.12395 7.26929 7.12564 7.52632 6.88825 7.88436C6.81866 7.98931 6.75244 8.0965 6.67893 8.19807C6.12166 8.96972 6.38879 9.74193 7.15707 10.2824L7.63914 9.82948C7.49884 9.69704 7.35853 9.57862 7.23732 9.44674C7.02687 9.22226 7.00105 8.95906 7.15651 8.69642C7.21587 8.59325 7.28166 8.49391 7.35349 8.39898C7.86867 7.73958 7.85856 7.0319 7.35685 6.39775C7.30132 6.31771 7.25017 6.23472 7.20365 6.14914L8.06958 6.09639L8.06341 6.09021C8.06635 6.37264 8.15695 6.64718 8.32268 6.87589C8.41079 7.00216 8.49104 7.13348 8.57914 7.25919C8.80362 7.57907 8.79801 7.89447 8.57578 8.21323C8.46354 8.37373 8.3513 8.53423 8.25253 8.70371C7.9955 9.14762 7.98652 9.60163 8.26824 10.0332C8.4192 10.2627 8.63246 10.4513 8.85245 10.6977C8.92234 10.6028 8.99727 10.5117 9.07693 10.4249C9.16942 10.3433 9.26608 10.2665 9.36651 10.1948C9.18861 10.0332 9.05784 9.92713 8.94111 9.80759C8.70204 9.56179 8.67567 9.29746 8.85638 9.00788C8.95683 8.84794 9.06682 8.69417 9.16784 8.53479C9.50456 8.0039 9.50606 7.47151 9.17233 6.93762C9.07581 6.78329 8.95571 6.64243 8.8749 6.4808C8.80867 6.34836 8.78511 6.19403 8.74245 6.0498L8.74021 6.05093ZM14.5206 9.32047L15.0346 8.82549C14.8331 8.63974 14.6541 8.44051 14.4425 8.28506C14.2447 8.14325 14.0064 8.06905 13.7631 8.0735C13.5197 8.07795 13.2843 8.16081 13.0917 8.30975C12.9937 8.38917 12.9 8.47385 12.8111 8.56341C12.5698 8.78789 12.3094 8.78789 12.0681 8.56341C11.9968 8.49663 11.9306 8.42367 11.856 8.36082C11.4547 8.0241 10.8952 7.97415 10.4732 8.2671C10.2487 8.42424 10.0585 8.63468 9.81434 8.8558C9.90873 8.92561 9.99922 9.00055 10.0854 9.08028C10.1621 9.1674 10.2342 9.25844 10.3015 9.35302C10.4777 9.17288 10.6006 9.03987 10.7319 8.91473C10.9631 8.69361 11.2246 8.69417 11.4581 8.91024C11.535 8.98151 11.6046 9.06176 11.6826 9.12854C12.035 9.42037 12.4329 9.50511 12.8566 9.32721C13.0274 9.24894 13.183 9.14102 13.3162 9.00844C13.6827 8.66331 13.8959 8.65769 14.254 9.02079C14.3477 9.10834 14.428 9.2144 14.5177 9.31935L14.5206 9.32047ZM10.3677 10.6786C10.4653 10.5602 10.5546 10.4339 10.6612 10.3245C10.9743 10.0051 11.2044 10.0208 11.5412 10.3211C11.7185 10.4793 11.9278 10.6326 12.1501 10.7038C12.6349 10.8593 13.0317 10.6584 13.3712 10.3037C13.6518 10.0096 13.9105 10.0164 14.2012 10.3037C14.3185 10.4159 14.4364 10.5327 14.5284 10.6219L15.029 10.1729C14.8438 9.99672 14.6794 9.8132 14.4886 9.66449C14.28 9.50115 14.0213 9.41502 13.7565 9.42075C13.4916 9.42648 13.2369 9.52371 13.0356 9.69591C12.9548 9.76213 12.8841 9.8407 12.8078 9.91253C12.5732 10.1308 12.3134 10.1331 12.0782 9.91759C12.017 9.86147 11.9609 9.79805 11.8986 9.74137C11.5092 9.38669 10.9564 9.30588 10.5226 9.58311C10.2751 9.74081 10.0702 9.96585 9.84914 10.1583L10.3677 10.6786ZM4.27588 9.53597C3.37796 8.38551 2.49014 8.59933 1.83578 9.48378L2.28474 9.98886C2.41213 9.8508 2.52549 9.7178 2.64952 9.59602C2.89364 9.35582 3.16133 9.35302 3.40321 9.59265C3.53116 9.71948 3.64284 9.86315 3.76294 10.0001C3.83197 9.94396 3.8589 9.92208 3.88359 9.8985L4.27588 9.53597ZM15.7305 9.97932C15.8483 9.85361 15.9628 9.72229 16.0863 9.60051C16.3394 9.3519 16.6071 9.34797 16.8551 9.60051C16.9803 9.7279 17.0835 9.87662 17.1919 10.0068L17.7014 9.51913C16.9534 8.49326 16.0178 8.49214 15.258 9.50342L15.7305 9.97932Z" fill="white"/>
<path d="M5.09075 6.38756C5.00601 6.25119 4.90892 6.12099 4.83821 5.97732C4.59128 5.47729 4.69567 4.92171 5.11881 4.49632C5.30064 4.31337 5.4286 4.12088 5.35508 3.81446L4.04973 4.02884V3.02822L4.74674 2.87951C4.74674 2.5759 4.69903 2.28239 4.7602 2.01414C4.82138 1.74588 4.99198 1.50008 5.12274 1.22846L4.58792 1.11622L4.04749 1.00398V0L6.14132 0.355798C8.13301 0.695884 10.1258 1.03878 12.117 1.37157C12.255 1.39457 12.4077 1.35136 12.5502 1.3233C14.7299 0.887814 16.9092 0.450828 19.0882 0.0123447C19.1143 0.0102558 19.1406 0.0102558 19.1667 0.0123447L19.8329 1.34351L16.0437 1.98945L16.0409 2.04052L19.8295 2.68814C19.6011 3.14663 19.3806 3.58606 19.1589 4.03109L16.5774 3.51479C15.1587 3.23082 13.7411 2.94012 12.3196 2.67299C12.1237 2.63595 11.9059 2.69824 11.7022 2.72911C10.7645 2.88288 9.82727 3.04281 8.88951 3.20163C8.84767 3.21203 8.80645 3.22478 8.76604 3.2398C8.81318 3.32959 8.8491 3.40815 8.89456 3.48279C9.02083 3.68426 9.16674 3.87563 9.27674 4.0844C9.53489 4.57769 9.42376 5.13777 9.02644 5.57494C8.90466 5.70907 8.83395 5.88921 8.74023 6.0486L8.74528 6.04411L8.06791 6.08619L8.07408 6.09237C8.07408 5.72142 8.22561 5.41893 8.48208 5.15909C8.80533 4.83248 8.81879 4.59789 8.57131 4.21123C8.39509 3.93793 8.22954 3.65733 8.04266 3.3526L7.43264 3.45473C7.47248 3.52545 7.5011 3.57988 7.53253 3.63207C7.85129 4.16577 7.79741 4.76906 7.35743 5.2096C7.08581 5.48235 6.96123 5.76014 7.1801 6.144L6.47186 6.21303L6.47692 6.21696C6.2934 5.69841 6.39891 5.24271 6.77772 4.84819C7.15653 4.45367 7.14193 4.00022 6.7216 3.62814C6.69724 3.60545 6.66509 3.59299 6.63181 3.59335C6.42809 3.62534 6.22494 3.6635 6.02235 3.69942C6.11438 4.2073 5.96286 4.60407 5.62109 4.94303C5.32534 5.23598 5.30682 5.49076 5.53635 5.84095C5.62951 5.98293 5.72378 6.12492 5.83546 6.29328L5.08514 6.38251L5.09075 6.38756ZM6.81981 1.56686L6.4539 1.48829C5.88204 1.36763 5.88653 1.371 5.55599 1.85588C5.41995 2.03581 5.35954 2.26173 5.38763 2.48554C5.41905 2.71002 5.46451 2.74033 5.68282 2.69655C5.77087 2.67512 5.86005 2.65863 5.94995 2.64717C6.23055 2.62472 6.42585 2.5456 6.48477 2.20888C6.52293 1.98833 6.69578 1.79246 6.81981 1.56518V1.56686ZM8.49835 1.90358L8.03985 1.8093C7.55947 1.71109 7.55891 1.71053 7.28953 2.11684C7.23341 2.19877 7.18851 2.2852 7.115 2.41147C7.5011 2.33346 7.81986 2.25882 8.14255 2.20888C8.32213 2.17857 8.43606 2.10113 8.49835 1.90078V1.90358Z" fill="white"/>
</svg>
