<svg width="24" height="24" viewBox="0 0 24 24" fill="none" xmlns="http://www.w3.org/2000/svg">
<path d="M4.65461 19.0131L5.08105 18.7187C5.43875 18.461 5.86809 18.3217 6.30893 18.3203C6.74977 18.3189 7.18001 18.4554 7.53936 18.7108C7.90375 18.9603 8.25625 19.2244 8.7157 19.2877C8.99163 19.3355 9.2743 19.3282 9.54737 19.2661C9.82043 19.204 10.0785 19.0884 10.3066 18.926C10.667 18.6698 11.0235 18.4111 11.4843 18.3503C12.0247 18.2702 12.5758 18.3899 13.0342 18.687C13.372 18.9271 13.7418 19.1186 14.1327 19.256C14.7453 19.4316 15.3368 19.2838 15.8596 18.8996C16.2029 18.6461 16.5527 18.4111 16.995 18.3503C17.5273 18.259 18.0744 18.3763 18.5225 18.6778L19.0097 19.0144C19.5501 18.5306 20.0346 17.9876 20.4541 17.3958C21.4054 16.0679 22.0379 14.5386 22.3023 12.9266C22.5667 11.3146 22.456 9.66337 21.9788 8.10112C21.5015 6.53887 20.6706 5.10765 19.5505 3.91862C18.4304 2.72959 17.0513 1.81476 15.5203 1.24517C15.4503 1.21877 15.3777 1.19631 15.309 1.16727C14.9711 1.02336 14.8219 0.715748 14.9341 0.400208C14.961 0.323549 15.0032 0.253164 15.0581 0.193354C15.1131 0.133545 15.1797 0.0855686 15.2538 0.0523363C15.3279 0.0191039 15.4081 0.00132149 15.4893 7.09325e-05C15.5705 -0.00117963 15.6511 0.0141171 15.7262 0.0450517C16.8891 0.443767 17.979 1.02975 18.9529 1.77986C21.5155 3.77081 23.0523 6.37303 23.5355 9.57992C24.2194 14.1124 22.0001 18.7953 18.0512 21.2206C16.1301 22.4232 13.9037 23.0478 11.6374 23.0201C6.96373 22.9778 2.58445 19.9835 0.870764 15.6267C-0.333306 12.5703 -0.283135 9.52183 0.986947 6.4945C1.01918 6.43922 1.03261 6.37497 1.02523 6.31141C1.01785 6.24785 0.990058 6.1884 0.946019 6.14198C0.654736 5.77742 0.488698 5.3287 0.472527 4.86234C0.456355 4.39599 0.59091 3.93683 0.856241 3.55297C1.11572 3.16509 1.49343 2.8713 1.93324 2.71526C2.37305 2.55922 2.85147 2.54926 3.29739 2.68688C3.38058 2.71815 3.47155 2.72222 3.5572 2.6985C3.64284 2.67477 3.71876 2.62447 3.774 2.55485C4.784 1.6033 5.95823 0.842853 7.23966 0.310424C7.61197 0.154634 7.93939 0.261581 8.08594 0.581082C8.23249 0.900583 8.09518 1.24121 7.71231 1.4102C6.61532 1.88364 5.60058 2.52849 4.7061 3.32061C4.54503 3.46187 4.50806 3.55957 4.61632 3.76949C5.02296 4.56165 4.97939 5.34191 4.46449 6.06145C3.94959 6.78099 3.21421 7.08861 2.32436 6.95526C2.16857 6.93282 2.08804 6.95525 2.0207 7.11104C0.304377 11.0639 1.36718 16.0214 4.55955 18.9273C4.58595 18.9524 4.61236 18.9722 4.65461 19.0131ZM3.67366 4.79664C3.67418 4.66536 3.64873 4.53528 3.59877 4.41387C3.54882 4.29247 3.47534 4.18214 3.38257 4.08924C3.2898 3.99635 3.17957 3.92273 3.05823 3.87261C2.93689 3.82249 2.80683 3.79686 2.67555 3.79721C2.41042 3.79929 2.15674 3.90552 1.96927 4.093C1.78179 4.28048 1.67555 4.53416 1.67348 4.79928C1.67659 5.06429 1.7836 5.31751 1.9715 5.50442C2.1594 5.69133 2.41316 5.79701 2.67819 5.79872C2.80992 5.79873 2.94035 5.77258 3.0619 5.72181C3.18346 5.67105 3.29373 5.59667 3.38633 5.50297C3.47892 5.40927 3.552 5.29812 3.60132 5.17597C3.65065 5.05382 3.67523 4.92309 3.67366 4.79137V4.79664Z" fill="white"/>
<path d="M6.21777 10.1674C6.23758 8.93427 6.6429 7.68927 7.24229 6.50237C8.17835 4.64213 9.46296 3.03802 10.9179 1.5633C11.0302 1.44354 11.1652 1.34723 11.315 1.27996C11.4648 1.21268 11.6264 1.17577 11.7905 1.17135C11.9547 1.16693 12.1181 1.19508 12.2713 1.2542C12.4245 1.31332 12.5644 1.40223 12.6831 1.51577C14.5393 3.38261 16.1434 5.43032 17.024 7.95332C17.5073 9.34223 17.6432 10.7628 17.1125 12.1689C16.3269 14.247 14.8205 15.517 12.6236 15.8392C10.3792 16.1679 8.59687 15.2754 7.25285 13.4852C6.54256 12.5438 6.21909 11.4612 6.21777 10.1674ZM15.5559 10.6506C15.5641 10.5013 15.5179 10.354 15.4259 10.236C15.3339 10.1181 15.2024 10.0374 15.0555 10.009C14.9057 9.98267 14.7514 10.0154 14.6252 10.1003C14.4989 10.1852 14.4104 10.3157 14.3783 10.4644C14.0786 11.5431 13.396 12.2138 12.2975 12.4633C12.2215 12.479 12.1493 12.5096 12.0852 12.5533C12.0211 12.5971 11.9662 12.6531 11.9239 12.7182C11.8815 12.7833 11.8525 12.8561 11.8384 12.9324C11.8244 13.0088 11.8256 13.0872 11.8421 13.163C11.8586 13.2428 11.8912 13.3185 11.9377 13.3854C11.9843 13.4523 12.0439 13.5091 12.1129 13.5523C12.182 13.5956 12.2591 13.6245 12.3396 13.6372C12.4201 13.65 12.5023 13.6463 12.5814 13.6264C13.4919 13.4486 14.3039 12.9391 14.8601 12.1966C15.2142 11.7454 15.453 11.2148 15.5559 10.6506Z" fill="white"/>
</svg>
