<svg width="25" height="24" viewBox="0 0 25 24" fill="none" xmlns="http://www.w3.org/2000/svg">
<g opacity="0.7">
<path d="M5.52601 19.9181L5.95245 19.6237C6.31014 19.3661 6.73949 19.2268 7.18033 19.2253C7.62117 19.2239 8.05141 19.3604 8.41076 19.6158C8.77515 19.8653 9.12765 20.1294 9.5871 20.1928C9.86303 20.2406 10.1457 20.2332 10.4188 20.1711C10.6918 20.1091 10.9499 19.9934 11.178 19.831C11.5384 19.5749 11.8949 19.3161 12.3557 19.2554C12.8961 19.1752 13.4472 19.2949 13.9056 19.5921C14.2434 19.8321 14.6132 20.0236 15.0041 20.1611C15.6167 20.3367 16.2082 20.1888 16.731 19.8046C17.0743 19.5511 17.4241 19.3161 17.8664 19.2554C18.3987 19.1641 18.9458 19.2813 19.3939 19.5828L19.8811 19.9195C20.4215 19.4356 20.906 18.8927 21.3255 18.3008C22.2768 16.9729 22.9093 15.4436 23.1737 13.8316C23.4381 12.2196 23.3274 10.5684 22.8502 9.00615C22.3729 7.4439 21.542 6.01268 20.4219 4.82365C19.3018 3.63462 17.9227 2.71979 16.3917 2.1502C16.3217 2.1238 16.2491 2.10134 16.1804 2.0723C15.8425 1.92839 15.6933 1.62078 15.8055 1.30524C15.8324 1.22858 15.8746 1.15819 15.9295 1.09838C15.9845 1.03857 16.0511 0.990598 16.1252 0.957366C16.1993 0.924133 16.2795 0.906351 16.3607 0.9051C16.4419 0.90385 16.5225 0.919146 16.5976 0.950081C17.7605 1.3488 18.8504 1.93478 19.8243 2.68489C22.3869 4.67583 23.9237 7.27806 24.4069 10.485C25.0908 15.0174 22.8715 19.7003 18.9226 22.1256C17.0015 23.3282 14.7751 23.9529 12.5088 23.9251C7.83513 23.8829 3.45585 20.8885 1.74216 16.5317C0.538093 13.4753 0.588263 10.4269 1.85835 7.39953C1.89058 7.34425 1.90401 7.28 1.89663 7.21644C1.88925 7.15288 1.86146 7.09343 1.81742 7.04701C1.52613 6.68245 1.3601 6.23373 1.34393 5.76737C1.32775 5.30102 1.46231 4.84186 1.72764 4.458C1.98712 4.07012 2.36483 3.77633 2.80464 3.62029C3.24445 3.46425 3.72287 3.45429 4.16879 3.59191C4.25198 3.62318 4.34295 3.62725 4.42859 3.60353C4.51424 3.5798 4.59016 3.5295 4.6454 3.45988C5.6554 2.50833 6.82963 1.74788 8.11106 1.21545C8.48337 1.05966 8.81079 1.16661 8.95734 1.48611C9.10389 1.80561 8.96658 2.14624 8.58371 2.31523C7.48672 2.78867 6.47198 3.43352 5.5775 4.22563C5.41643 4.3669 5.37946 4.4646 5.48772 4.67452C5.89436 5.46667 5.85079 6.24694 5.33589 6.96648C4.82099 7.68602 4.08561 7.99364 3.19576 7.86029C3.03997 7.83785 2.95944 7.86028 2.8921 8.01607C1.17578 11.9689 2.23858 16.9265 5.43095 19.8323C5.45735 19.8574 5.48376 19.8772 5.52601 19.9181ZM4.54506 5.70167C4.54558 5.57038 4.52013 5.44031 4.47017 5.3189C4.42021 5.1975 4.34674 5.08716 4.25397 4.99427C4.1612 4.90138 4.05097 4.82775 3.92963 4.77764C3.80829 4.72752 3.67823 4.70189 3.54695 4.70224C3.28182 4.70431 3.02814 4.81055 2.84067 4.99803C2.65319 5.1855 2.54695 5.43919 2.54488 5.70431C2.54799 5.96932 2.655 6.22254 2.8429 6.40945C3.0308 6.59636 3.28456 6.70204 3.54959 6.70375C3.68132 6.70376 3.81175 6.67761 3.9333 6.62684C4.05486 6.57607 4.16513 6.5017 4.25773 6.408C4.35032 6.3143 4.4234 6.20315 4.47272 6.081C4.52204 5.95885 4.54663 5.82812 4.54506 5.6964V5.70167Z" fill="#5C5D61"/>
<path d="M7.08917 11.0725C7.10898 9.83942 7.51429 8.59442 8.11369 7.40752C9.04975 5.54728 10.3344 3.94317 11.7893 2.46845C11.9016 2.34869 12.0366 2.25239 12.1864 2.18511C12.3362 2.11783 12.4978 2.08092 12.6619 2.0765C12.8261 2.07208 12.9895 2.10023 13.1427 2.15935C13.2959 2.21847 13.4358 2.30738 13.5544 2.42092C15.4107 4.28776 17.0148 6.33547 17.8954 8.85847C18.3787 10.2474 18.5146 11.668 17.9839 13.074C17.1983 15.1521 15.6919 16.4222 13.495 16.7443C11.2506 17.0731 9.46827 16.1806 8.12425 14.3903C7.41396 13.449 7.09049 12.3664 7.08917 11.0725ZM16.4273 11.5558C16.4355 11.4064 16.3893 11.2591 16.2973 11.1412C16.2053 11.0232 16.0738 10.9426 15.9269 10.9141C15.7771 10.8878 15.6228 10.9205 15.4966 11.0055C15.3703 11.0904 15.2818 11.2209 15.2497 11.3696C14.95 12.4482 14.2674 13.1189 13.1689 13.3685C13.0929 13.3841 13.0207 13.4148 12.9566 13.4585C12.8925 13.5022 12.8376 13.5583 12.7953 13.6233C12.7529 13.6884 12.7239 13.7612 12.7098 13.8376C12.6958 13.9139 12.697 13.9923 12.7134 14.0682C12.73 14.148 12.7626 14.2236 12.8091 14.2905C12.8557 14.3574 12.9153 14.4142 12.9843 14.4575C13.0534 14.5008 13.1305 14.5297 13.211 14.5424C13.2915 14.5551 13.3737 14.5514 13.4528 14.5316C14.3633 14.3537 15.1753 13.8442 15.7315 13.1018C16.0856 12.6506 16.3244 12.1199 16.4273 11.5558Z" fill="#5C5D61"/>
</g>
</svg>
