<svg width="26" height="21" viewBox="0 0 26 21" fill="none" xmlns="http://www.w3.org/2000/svg">
<g opacity="0.7">
<path d="M0.808585 6.45586C0.837799 6.13423 0.874317 5.81259 0.893792 5.49034C0.967434 4.26889 1.0356 3.04995 1.1062 1.826C1.1062 1.7678 1.11046 1.70899 1.11776 1.65142C1.15367 1.37297 1.29304 1.23092 1.51579 1.24469C1.73854 1.25845 1.87304 1.43679 1.86026 1.72588C1.83105 2.39104 1.7994 3.05621 1.76593 3.72137C1.73246 4.38653 1.69959 5.06796 1.66977 5.74189C1.65455 6.07353 1.8067 6.28127 2.06354 6.29316C2.32037 6.30505 2.49321 6.10544 2.50173 5.7738C2.53703 4.45975 2.56686 3.14569 2.59911 1.83163C2.59601 1.74793 2.6007 1.66412 2.61311 1.58134C2.65754 1.36733 2.789 1.24343 3.00505 1.24719C3.22111 1.25094 3.35013 1.37233 3.38665 1.59134C3.39714 1.66553 3.40243 1.7404 3.40247 1.81536C3.4329 3.08061 3.46333 4.34565 3.49376 5.61048C3.49375 5.73518 3.50639 5.85954 3.5315 5.98154C3.54918 6.07305 3.59864 6.15481 3.67065 6.21158C3.74266 6.26834 3.8323 6.29623 3.92284 6.29004C4.01361 6.29494 4.10305 6.26599 4.17473 6.20851C4.2464 6.15103 4.29548 6.06888 4.31295 5.97717C4.33148 5.90516 4.33948 5.83071 4.33669 5.75628C4.27583 4.44222 4.21334 3.12817 4.14924 1.81411C4.14407 1.73953 4.14407 1.66468 4.14924 1.5901C4.1675 1.38986 4.27096 1.26534 4.47058 1.24657C4.67021 1.2278 4.82662 1.32666 4.85887 1.53629C4.89782 1.79034 4.90756 2.04876 4.92338 2.30594C5.01021 3.7514 5.09623 5.19708 5.18144 6.64296C5.23621 7.56071 4.89133 8.2751 4.1468 8.78612C3.67392 9.11025 3.50716 9.56078 3.55219 10.1377C3.71773 12.2527 3.87273 14.3688 4.01717 16.4859C4.07803 17.3825 4.1042 18.2817 4.14315 19.1765C4.16202 19.6108 4.08716 20.0219 3.83885 20.3861C3.39091 21.05 2.61068 21.0488 2.16152 20.3861C1.93835 20.0542 1.83344 19.6532 1.86452 19.251C2.02317 16.5762 2.18546 13.9018 2.35141 11.2278C2.37515 10.8454 2.41227 10.465 2.45122 10.0839C2.49504 9.61272 2.39036 9.17595 2.00328 8.91001C1.3892 8.48514 0.968651 7.94387 0.806152 7.20049L0.808585 6.45586Z" fill="#5C5D61"/>
<path d="M13.6434 18.5997C9.102 18.594 5.40532 14.787 5.41445 10.1246C5.42357 5.44722 9.11235 1.64959 13.6532 1.66398C14.7352 1.66266 15.8068 1.88094 16.8066 2.30628C17.8065 2.73163 18.7148 3.35569 19.4796 4.14268C20.2443 4.92967 20.8505 5.86412 21.2633 6.89245C21.6761 7.92079 21.8875 9.02278 21.8852 10.1353C21.895 14.8027 18.1727 18.5997 13.6434 18.5997ZM19.9024 10.1309C19.9024 6.60233 17.1028 3.72204 13.6611 3.70703C10.2194 3.69201 7.40277 6.58544 7.40094 10.1284C7.40094 13.6613 10.1957 16.5441 13.6349 16.5541C17.0742 16.5641 19.8993 13.6644 19.9005 10.1278L19.9024 10.1309Z" fill="#5C5D61"/>
<path d="M23.8955 10.8728C23.8687 10.8578 23.8614 10.8503 23.8547 10.8509C23.1 10.8815 22.8079 10.4998 22.8292 9.69326C22.8645 8.37044 22.8225 7.04512 22.8736 5.72293C22.9497 3.78313 23.604 2.03919 24.7214 0.479847C24.7774 0.40163 24.9338 0.314021 24.9916 0.34218C25.0744 0.382853 25.1218 0.521145 25.1608 0.627521C25.1845 0.690095 25.1656 0.775818 25.1656 0.850281C25.1656 3.60667 25.1815 6.36243 25.1583 9.1182C25.1468 10.5117 25.2612 11.8946 25.3592 13.2806C25.4474 14.5259 25.5193 15.7723 25.5899 17.0182C25.6312 17.7578 25.6574 18.4987 25.686 19.2389C25.7099 19.6326 25.6112 20.0238 25.4042 20.3559C24.9557 21.0636 24.1408 21.068 23.6892 20.3646C23.4825 20.0423 23.3826 19.66 23.4043 19.2746C23.4421 18.3266 23.4707 17.3773 23.5297 16.4306C23.6417 14.6447 23.7731 12.8639 23.8949 11.0755C23.8997 11.0104 23.8955 10.9447 23.8955 10.8728Z" fill="#5C5D61"/>
<path d="M13.6435 14.8338C11.1275 14.8269 9.06862 12.7063 9.07166 10.1226C9.0747 7.53895 11.1452 5.41205 13.6514 5.42019C14.8634 5.42532 16.0241 5.92382 16.8796 6.80661C17.735 7.68941 18.2155 8.88463 18.216 10.1308C18.213 12.7238 16.154 14.8407 13.6435 14.8338Z" fill="#5C5D61"/>
</g>
</svg>
