<svg width="25" height="21" viewBox="0 0 25 21" fill="none" xmlns="http://www.w3.org/2000/svg">
<path d="M0.0024331 6.11907C0.0316463 5.79744 0.0681643 5.4758 0.0876397 5.15355C0.161281 3.9321 0.229445 2.71315 0.300043 1.4892C0.300043 1.43101 0.304304 1.3722 0.311607 1.31463C0.347515 1.03617 0.486885 0.89413 0.709636 0.907896C0.932386 0.921663 1.06689 1.1 1.05411 1.38909C1.0249 2.05425 0.99325 2.71941 0.959776 3.38458C0.926303 4.04974 0.893437 4.73117 0.863615 5.4051C0.8484 5.73674 1.00055 5.94448 1.25738 5.95637C1.51422 5.96826 1.68706 5.76865 1.69558 5.43701C1.73088 4.12295 1.7607 2.8089 1.79296 1.49484C1.78986 1.41114 1.79454 1.32733 1.80696 1.24455C1.85139 1.03054 1.98285 0.90664 2.1989 0.910394C2.41496 0.914149 2.54398 1.03554 2.5805 1.25455C2.59099 1.32874 2.59627 1.40361 2.59632 1.47857C2.62675 2.74382 2.65718 4.00886 2.68761 5.27369C2.6876 5.39839 2.70024 5.52275 2.72535 5.64475C2.74303 5.73626 2.79249 5.81802 2.8645 5.87478C2.93651 5.93155 3.02615 5.95944 3.11668 5.95325C3.20746 5.95815 3.2969 5.9292 3.36857 5.87172C3.44025 5.81424 3.48933 5.73209 3.5068 5.64037C3.52532 5.56836 3.53332 5.49392 3.53054 5.41949C3.46968 4.10543 3.40719 2.79137 3.34308 1.47732C3.33792 1.40274 3.33792 1.32788 3.34308 1.25331C3.36134 1.05307 3.46481 0.928548 3.66443 0.909775C3.86406 0.891003 4.02046 0.989871 4.05272 1.19949C4.09167 1.45354 4.10141 1.71197 4.11723 1.96915C4.20406 3.41461 4.29008 4.86029 4.37529 6.30616C4.43006 7.22392 4.08518 7.9383 3.34065 8.44933C2.86776 8.77346 2.701 9.22399 2.74604 9.80093C2.91158 11.9159 3.06657 14.032 3.21102 16.1491C3.27188 17.0457 3.29805 17.9449 3.337 18.8398C3.35587 19.274 3.28101 19.6851 3.0327 20.0493C2.58476 20.7132 1.80452 20.712 1.35537 20.0493C1.1322 19.7174 1.02729 19.3165 1.05837 18.9142C1.21701 16.2394 1.37931 13.565 1.54526 10.891C1.56899 10.5086 1.60612 10.1282 1.64507 9.74711C1.68889 9.27593 1.58421 8.83916 1.19713 8.57322C0.583046 8.14834 0.162498 7.60707 0 6.86369L0.0024331 6.11907Z" fill="white"/>
<path d="M12.8373 18.2626C8.29585 18.257 4.59916 14.45 4.60829 9.78759C4.61742 5.11018 8.3062 1.31255 12.847 1.32695C13.929 1.32563 15.0007 1.5439 16.0005 1.96925C17.0003 2.39459 17.9086 3.01865 18.6734 3.80564C19.4382 4.59263 20.0443 5.52708 20.4571 6.55542C20.87 7.58375 21.0813 8.68575 21.0791 9.79823C21.0888 14.4656 17.3665 18.2626 12.8373 18.2626ZM19.0962 9.79385C19.0962 6.2653 16.2966 3.38501 12.8549 3.36999C9.41326 3.35497 6.59662 6.2484 6.59479 9.79134C6.59479 13.3243 9.38952 16.2071 12.8288 16.2171C16.268 16.2271 19.0932 13.3274 19.0944 9.79072L19.0962 9.79385Z" fill="white"/>
<path d="M23.0893 10.536C23.0625 10.521 23.0553 10.5135 23.0486 10.5141C22.2939 10.5447 22.0018 10.163 22.0231 9.35646C22.0584 8.03365 22.0164 6.70832 22.0675 5.38613C22.1436 3.44634 22.7978 1.7024 23.9152 0.143055C23.9712 0.0648376 24.1276 -0.0227708 24.1854 0.00538758C24.2682 0.0460607 24.3157 0.184353 24.3546 0.290729C24.3784 0.353303 24.3595 0.439026 24.3595 0.513489C24.3595 3.26988 24.3753 6.02564 24.3522 8.7814C24.3406 10.1749 24.455 11.5578 24.553 12.9438C24.6413 14.1891 24.7131 15.4355 24.7837 16.6814C24.8251 17.421 24.8513 18.1619 24.8799 18.9021C24.9037 19.2958 24.805 19.687 24.5981 20.0191C24.1495 20.7268 23.3346 20.7312 22.883 20.0278C22.6764 19.7055 22.5765 19.3232 22.5982 18.9378C22.6359 17.9898 22.6645 17.0406 22.7236 16.0938C22.8355 14.3079 22.967 12.5271 23.0887 10.7387C23.0936 10.6736 23.0893 10.6079 23.0893 10.536Z" fill="white"/>
<path d="M12.8374 14.4969C10.3214 14.49 8.26246 12.3694 8.26551 9.78572C8.26855 7.20204 10.339 5.07514 12.8453 5.08328C14.0573 5.0884 15.218 5.5869 16.0734 6.4697C16.9289 7.35249 17.4094 8.54771 17.4098 9.79386C17.4068 12.3869 15.3479 14.5038 12.8374 14.4969Z" fill="white"/>
</svg>
