<svg width="26" height="21" viewBox="0 0 26 21" fill="none" xmlns="http://www.w3.org/2000/svg">
<g opacity="0.7">
<path d="M0.808097 6.4572C0.83731 6.13557 0.873828 5.81394 0.893304 5.49168C0.966945 4.27024 1.03511 3.05129 1.10571 1.82734C1.10571 1.76915 1.10997 1.71033 1.11727 1.65276C1.15318 1.37431 1.29255 1.23226 1.5153 1.24603C1.73805 1.2598 1.87255 1.43813 1.85977 1.72722C1.83056 2.39238 1.79891 3.05755 1.76544 3.72271C1.73197 4.38787 1.6991 5.06931 1.66928 5.74323C1.65406 6.07487 1.80621 6.28262 2.06305 6.2945C2.31988 6.30639 2.49273 6.10679 2.50125 5.77514C2.53654 4.46109 2.56637 3.14703 2.59863 1.83298C2.59552 1.74928 2.60021 1.66546 2.61262 1.58268C2.65705 1.36868 2.78851 1.24477 3.00457 1.24853C3.22062 1.25228 3.34964 1.37368 3.38616 1.59269C3.39665 1.66687 3.40194 1.74174 3.40199 1.81671C3.43242 3.08195 3.46285 4.347 3.49328 5.61183C3.49326 5.73653 3.50591 5.86089 3.53101 5.98289C3.54869 6.07439 3.59815 6.15615 3.67016 6.21292C3.74217 6.26968 3.83181 6.29757 3.92235 6.29138C4.01312 6.29629 4.10257 6.26734 4.17424 6.20985C4.24591 6.15237 4.295 6.07023 4.31246 5.97851C4.33099 5.9065 4.33899 5.83205 4.3362 5.75762C4.27534 4.44357 4.21286 3.12951 4.14875 1.81545C4.14358 1.74088 4.14358 1.66602 4.14875 1.59144C4.16701 1.3912 4.27047 1.26668 4.4701 1.24791C4.66972 1.22914 4.82613 1.32801 4.85838 1.53763C4.89734 1.79168 4.90707 2.05011 4.9229 2.30729C5.00972 3.75275 5.09574 5.19842 5.18095 6.6443C5.23572 7.56205 4.89085 8.27644 4.14632 8.78746C3.67343 9.1116 3.50667 9.56213 3.5517 10.1391C3.71725 12.2541 3.87224 14.3701 4.01668 16.4872C4.07754 17.3839 4.10371 18.2831 4.14266 19.1779C4.16153 19.6121 4.08667 20.0233 3.83836 20.3874C3.39042 21.0514 2.61019 21.0501 2.16104 20.3874C1.93786 20.0555 1.83295 19.6546 1.86403 19.2523C2.02268 16.5775 2.18497 13.9031 2.35092 11.2291C2.37466 10.8468 2.41178 10.4663 2.45073 10.0852C2.49455 9.61406 2.38987 9.1773 2.0028 8.91136C1.38871 8.48648 0.968162 7.94521 0.805664 7.20183L0.808097 6.4572Z" fill="white"/>
<path d="M13.6431 18.6008C9.10164 18.5951 5.40495 14.7881 5.41408 10.1257C5.42321 5.44832 9.11198 1.65069 13.6528 1.66508C14.7348 1.66376 15.8065 1.88203 16.8063 2.30738C17.8061 2.73273 18.7144 3.35678 19.4792 4.14378C20.244 4.93077 20.8501 5.86522 21.2629 6.89355C21.6757 7.92189 21.8871 9.02388 21.8848 10.1364C21.8946 14.8038 18.1723 18.6008 13.6431 18.6008ZM19.902 10.132C19.902 6.60343 17.1024 3.72314 13.6607 3.70813C10.219 3.69311 7.4024 6.58653 7.40058 10.1295C7.40058 13.6624 10.1953 16.5452 13.6346 16.5552C17.0738 16.5652 19.899 13.6655 19.9002 10.1289L19.902 10.132Z" fill="white"/>
<path d="M23.895 10.8739C23.8682 10.8589 23.8609 10.8514 23.8542 10.852C23.0995 10.8826 22.8074 10.5009 22.8287 9.69436C22.864 8.37154 22.822 7.04621 22.8731 5.72402C22.9492 3.78423 23.6035 2.04029 24.7209 0.480946C24.7769 0.402728 24.9333 0.31512 24.9911 0.343278C25.0739 0.383951 25.1213 0.522244 25.1603 0.62862C25.184 0.691194 25.1652 0.776916 25.1652 0.85138C25.1652 3.60777 25.181 6.36353 25.1579 9.1193C25.1463 10.5128 25.2607 11.8957 25.3587 13.2817C25.4469 14.527 25.5188 15.7734 25.5894 17.0193C25.6307 17.7589 25.6569 18.4998 25.6855 19.24C25.7094 19.6337 25.6107 20.0249 25.4037 20.357C24.9552 21.0647 24.1403 21.0691 23.6887 20.3657C23.482 20.0434 23.3821 19.6611 23.4038 19.2757C23.4416 18.3277 23.4702 17.3784 23.5292 16.4317C23.6412 14.6458 23.7727 12.865 23.8944 11.0766C23.8993 11.0115 23.895 10.9458 23.895 10.8739Z" fill="white"/>
<path d="M13.6432 14.8346C11.1272 14.8277 9.06825 12.7071 9.07129 10.1234C9.07434 7.53968 11.1448 5.41279 13.6511 5.42092C14.8631 5.42605 16.0238 5.92455 16.8792 6.80734C17.7346 7.69014 18.2152 8.88536 18.2156 10.1315C18.2126 12.7246 16.1537 14.8414 13.6432 14.8346Z" fill="white"/>
</g>
</svg>
