<svg width="27" height="25" viewBox="0 0 27 25" fill="none" xmlns="http://www.w3.org/2000/svg">
<g opacity="0.7">
<path d="M11.5273 4.3481C11.3594 4.47221 11.208 4.6455 11.0199 4.70717C10.7654 4.79069 10.4828 4.78522 10.212 4.82191C9.04504 4.97256 8.22778 5.78825 8.06776 6.95676C8.02717 7.25338 8.02171 7.56249 7.92335 7.83881C7.86715 7.99492 7.64001 8.21583 7.51902 8.19866C7.35432 8.17524 7.14044 7.97776 7.08658 7.80838C6.98198 7.47898 6.98823 7.11679 6.92266 6.77256C6.71737 5.70473 5.90011 4.95304 4.8198 4.82113C4.54894 4.78756 4.27808 4.75477 4.00801 4.71731C3.73793 4.67984 3.55918 4.5487 3.56074 4.2677C3.5623 3.98669 3.75432 3.85868 4.01425 3.82277C4.27418 3.78687 4.55519 3.75174 4.82605 3.71973C5.34046 3.66634 5.82356 3.44711 6.20246 3.0951C6.58136 2.7431 6.83551 2.27741 6.92656 1.7683C6.98589 1.44905 7.02335 1.1259 7.0616 0.803529C7.09282 0.542037 7.20445 0.341423 7.48389 0.327373C7.78363 0.313322 7.92179 0.508459 7.9577 0.789465C7.99361 1.07047 8.03576 1.35539 8.0701 1.63874C8.13835 2.16497 8.37839 2.65396 8.75297 3.02982C9.12756 3.40567 9.61574 3.64736 10.1417 3.71739C10.454 3.75954 10.7662 3.77125 11.0652 3.85477C11.2338 3.9016 11.3696 4.06553 11.5202 4.17638L11.5273 4.3481ZM8.82725 4.27004L7.51121 2.95244L6.19673 4.26848L7.51199 5.59545C7.92882 5.1755 8.38858 4.71341 8.82648 4.2716L8.82725 4.27004Z" fill="#5C5D61"/>
<path d="M20.514 6.94823C20.3867 6.85072 20.2648 6.7465 20.1487 6.636C20.1169 6.57939 20.0995 6.51587 20.0979 6.45099C19.838 4.96791 19.7186 4.8555 18.198 4.55967C18.0552 4.53157 17.8757 4.34346 17.8382 4.19827C17.775 3.95005 17.9756 3.83609 18.2082 3.80799C18.401 3.78145 18.5985 3.75803 18.7866 3.72993C19.0969 3.6828 19.384 3.53746 19.6057 3.31521C19.8274 3.09297 19.972 2.80552 20.0183 2.49506C20.0495 2.28977 20.0347 2.06496 20.1182 1.88465C20.1854 1.73712 20.3586 1.56852 20.5023 1.55056C20.6061 1.53729 20.788 1.73479 20.8473 1.87529C20.9253 2.06029 20.9097 2.28274 20.9456 2.48725C21.0658 3.17493 21.5217 3.6222 22.2094 3.73616C22.3889 3.76504 22.5692 3.7869 22.7495 3.81422C22.9837 3.84544 23.1492 3.94379 23.1445 4.2045C23.1398 4.46522 22.9634 4.55577 22.7363 4.58543C22.5692 4.60807 22.4014 4.62914 22.2351 4.65568C21.5014 4.7712 21.0588 5.2138 20.9378 5.95456C20.9066 6.14658 20.9175 6.35264 20.8496 6.52983C20.7942 6.66643 20.6514 6.77884 20.514 6.94823ZM20.482 3.56835L19.863 4.20685L20.4734 4.80009L21.1018 4.19593L20.482 3.56835Z" fill="#5C5D61"/>
<path d="M26.3745 16.5648C25.0983 13.1959 22.7573 10.7472 19.6959 8.9488C18.0567 7.98713 16.2958 7.37518 14.3693 7.39937C11.4507 7.4345 9.75223 9.29538 9.62187 11.6683C9.60626 11.9485 9.4478 11.9563 9.24407 11.9922C8.40028 12.1406 7.54555 12.2522 6.72127 12.4754C5.00401 12.9438 3.44287 13.7142 2.19395 15.024C0.725698 16.5656 0.403324 18.5623 1.34157 20.2983C2.02847 21.5706 3.08693 22.4753 4.36238 23.085C8.68285 25.1496 13.0369 25.148 17.3878 23.163C17.6742 23.0319 17.8936 23.0069 18.1824 23.1412C19.2173 23.6026 20.3213 23.8898 21.4499 23.9912C24.619 24.2925 26.8912 22.3247 26.892 19.2695C26.8848 18.3441 26.7094 17.4276 26.3745 16.5648ZM10.6624 15.3612C10.4694 15.3846 10.2752 15.3973 10.0808 15.3995V15.4197C9.92473 15.4197 9.76862 15.4322 9.6125 15.4197C9.30027 15.3877 9.1106 15.1996 9.08874 14.8921C9.06767 14.5986 9.22066 14.3675 9.51337 14.3277C9.89763 14.2721 10.2867 14.2569 10.6741 14.2824C10.959 14.3043 11.1276 14.5229 11.1221 14.8288C11.1167 15.1348 10.9543 15.3112 10.6624 15.3612ZM16.1404 15.8748C15.9937 16.187 15.6986 16.2276 15.2755 16.1027C14.509 15.8772 13.7277 15.6992 12.9518 15.5056C12.8394 15.4775 12.7176 15.4752 12.606 15.4541C12.254 15.3885 12.0471 15.1497 12.0799 14.8507C12.115 14.5252 12.3703 14.3293 12.7426 14.3433L15.7088 15.0677C16.1599 15.209 16.295 15.5439 16.1404 15.8748ZM25.7461 19.6567C25.5807 21.4926 24.4715 22.6353 22.6395 22.8328C21.3718 22.9702 20.1588 22.7196 18.92 22.2326C19.1308 22.0343 19.3173 21.868 19.493 21.6909C20.898 20.2741 21.5076 18.6334 20.7739 16.6858C20.2657 15.3378 19.2338 14.4222 18.0302 13.6915C16.092 12.5207 13.9556 12.0282 11.7161 11.9165C11.4039 11.9009 11.0917 11.9165 10.7584 11.9165C10.6803 10.4452 11.6459 9.13145 13.0868 8.71619C14.4021 8.33839 15.7072 8.49763 16.9561 8.95661C20.9511 10.4249 23.8095 13.0999 25.3668 17.0925C25.6916 17.9059 25.8215 18.7841 25.7461 19.6567Z" fill="#5C5D61"/>
<path d="M21.8097 13.4308C21.7012 13.5573 21.5998 13.7735 21.4397 13.8343C21.2797 13.8952 20.9995 13.8718 20.8715 13.7656C20.393 13.3699 19.9442 12.9359 19.507 12.4941C19.3002 12.2857 19.3111 12.0164 19.4938 11.7846C19.6764 11.5527 19.9738 11.4794 20.1869 11.6573C20.7107 12.0968 21.1946 12.5854 21.6841 13.0624C21.7527 13.1287 21.7527 13.2552 21.8097 13.4308Z" fill="#5C5D61"/>
<path d="M17.4455 9.74646C17.9201 10.0821 18.3588 10.3467 18.728 10.6831C18.817 10.7612 18.7467 11.1679 18.6211 11.2928C18.4954 11.4177 18.18 11.4583 17.9966 11.3943C17.6787 11.2809 17.3867 11.1049 17.138 10.8767C17.0632 10.7973 17.0068 10.7023 16.9729 10.5985C16.9391 10.4947 16.9285 10.3848 16.9421 10.2765C16.985 10.1024 17.2254 9.96892 17.4455 9.74646Z" fill="#5C5D61"/>
</g>
</svg>
