<svg width="27" height="26" viewBox="0 0 27 26" fill="none" xmlns="http://www.w3.org/2000/svg">
<path d="M11.3874 4.93257C11.2196 5.05668 11.0682 5.22998 10.88 5.29164C10.6256 5.37516 10.343 5.3697 10.0722 5.40638C8.9052 5.55703 8.08794 6.37272 7.92793 7.54123C7.88734 7.83785 7.88188 8.14696 7.78352 8.42328C7.72732 8.5794 7.50018 8.80031 7.37919 8.78313C7.21449 8.75972 7.00061 8.56223 6.94675 8.39285C6.84215 8.06345 6.8484 7.70126 6.78283 7.35703C6.57754 6.28921 5.76028 5.53752 4.67997 5.4056C4.40911 5.37204 4.13825 5.33925 3.86817 5.30178C3.5981 5.26431 3.41935 5.13317 3.42091 4.85217C3.42247 4.57116 3.61449 4.44315 3.87442 4.40725C4.13435 4.37134 4.41536 4.33621 4.68622 4.30421C5.20063 4.25081 5.68373 4.03158 6.06263 3.67958C6.44153 3.32757 6.69568 2.86188 6.78673 2.35278C6.84606 2.03352 6.88352 1.71038 6.92177 1.388C6.95299 1.12651 7.06462 0.925896 7.34406 0.911845C7.6438 0.897795 7.78196 1.09293 7.81787 1.37394C7.85378 1.65494 7.89593 1.93986 7.93027 2.22321C7.99851 2.74945 8.23856 3.23843 8.61314 3.61429C8.98773 3.99014 9.4759 4.23184 10.0019 4.30186C10.3141 4.34401 10.6264 4.35572 10.9253 4.43924C11.0939 4.48608 11.2297 4.65001 11.3804 4.76085L11.3874 4.93257ZM8.68742 4.85451L7.37138 3.53692L6.0569 4.85295L7.37216 6.17992C7.78899 5.75997 8.24874 5.29788 8.68665 4.85608L8.68742 4.85451Z" fill="white"/>
<path d="M20.3741 7.53282C20.2469 7.43532 20.1249 7.33109 20.0088 7.22059C19.9771 7.16398 19.9597 7.10047 19.9581 7.03559C19.6981 5.5525 19.5787 5.4401 18.0582 5.14426C17.9153 5.11616 17.7358 4.92805 17.6983 4.78287C17.6351 4.53465 17.8357 4.42068 18.0683 4.39258C18.2611 4.36604 18.4586 4.34263 18.6467 4.31452C18.9571 4.2674 19.2441 4.12205 19.4658 3.89981C19.6875 3.67756 19.8321 3.39012 19.8785 3.07966C19.9097 2.87437 19.8948 2.64956 19.9784 2.46924C20.0455 2.32172 20.2188 2.15311 20.3624 2.13516C20.4662 2.12189 20.6481 2.31938 20.7074 2.45989C20.7855 2.64488 20.7699 2.86733 20.8058 3.07184C20.926 3.75953 21.3818 4.20679 22.0695 4.32076C22.2491 4.34964 22.4294 4.37149 22.6097 4.39881C22.8438 4.43004 23.0093 4.52839 23.0046 4.7891C23 5.04981 22.8236 5.14037 22.5964 5.17003C22.4294 5.19266 22.2615 5.21373 22.0953 5.24027C21.3615 5.3558 20.919 5.79839 20.798 6.53915C20.7667 6.73117 20.7777 6.93723 20.7098 7.11442C20.6543 7.25102 20.5115 7.36344 20.3741 7.53282ZM20.3421 4.15294L19.7231 4.79144L20.3335 5.38469L20.9619 4.78052L20.3421 4.15294Z" fill="white"/>
<path d="M26.2346 17.1493C24.9584 13.7804 22.6174 11.3317 19.556 9.53327C17.9168 8.57161 16.1559 7.95965 14.2294 7.98385C11.3109 8.01897 9.61234 9.87985 9.48198 12.2528C9.46637 12.533 9.30791 12.5408 9.10418 12.5767C8.26038 12.725 7.40566 12.8367 6.58137 13.0599C4.86412 13.5282 3.30297 14.2987 2.05406 15.6085C0.585806 17.1501 0.263431 19.1468 1.20168 20.8828C1.88858 22.1551 2.94704 23.0598 4.22249 23.6694C8.54295 25.734 12.897 25.7325 17.2479 23.7475C17.5344 23.6163 17.7537 23.5914 18.0425 23.7256C19.0774 24.1871 20.1814 24.4743 21.31 24.5757C24.4791 24.877 26.7513 22.9091 26.7521 19.854C26.7449 18.9285 26.5695 18.0121 26.2346 17.1493ZM10.5225 15.9457C10.3295 15.969 10.1353 15.9818 9.94095 15.9839V16.0042C9.78484 16.0042 9.62872 16.0167 9.47261 16.0042C9.16038 15.9722 8.97071 15.7841 8.94885 15.4766C8.92777 15.1831 9.08077 14.952 9.37348 14.9122C9.75774 14.8566 10.1468 14.8414 10.5342 14.8669C10.8191 14.8888 10.9877 15.1073 10.9822 15.4133C10.9768 15.7193 10.8144 15.8957 10.5225 15.9457ZM16.0005 16.4593C15.8538 16.7715 15.5587 16.8121 15.1357 16.6872C14.3691 16.4616 13.5878 16.2837 12.8119 16.0901C12.6995 16.062 12.5777 16.0596 12.4661 16.0386C12.1141 15.973 11.9072 15.7341 11.94 15.4352C11.9751 15.1097 12.2304 14.9138 12.6027 14.9278L15.5689 15.6522C16.02 15.7935 16.1551 16.1283 16.0005 16.4593ZM25.6062 20.2412C25.4408 22.0771 24.3316 23.2198 22.4996 23.4173C21.2319 23.5547 20.0189 23.3041 18.7801 22.817C18.9909 22.6188 19.1775 22.4525 19.3531 22.2753C20.7581 20.8586 21.3677 19.2178 20.634 17.2703C20.1258 15.9223 19.0939 15.0066 17.8903 14.276C15.9521 13.1052 13.8157 12.6126 11.5763 12.501C11.264 12.4854 10.9518 12.501 10.6185 12.501C10.5404 11.0296 11.506 9.71592 12.9469 9.30066C14.2622 8.92286 15.5673 9.08211 16.8162 9.54108C20.8112 11.0093 23.6696 13.6844 25.2269 17.677C25.5517 18.4904 25.6816 19.3685 25.6062 20.2412Z" fill="white"/>
<path d="M21.6699 14.0152C21.5614 14.1416 21.4599 14.3578 21.2999 14.4187C21.1399 14.4796 20.8596 14.4562 20.7316 14.35C20.2531 13.9543 19.8043 13.5203 19.3672 13.0785C19.1603 12.8701 19.1713 12.6007 19.3539 12.3689C19.5366 12.1371 19.834 12.0637 20.0471 12.2417C20.5708 12.6811 21.0548 13.1698 21.5442 13.6467C21.6129 13.7131 21.6129 13.8395 21.6699 14.0152Z" fill="white"/>
<path d="M17.3057 10.3311C17.7803 10.6667 18.219 10.9313 18.5882 11.2677C18.6772 11.3458 18.6069 11.7525 18.4812 11.8774C18.3556 12.0023 18.0402 12.0429 17.8568 11.9788C17.5388 11.8655 17.2469 11.6895 16.9982 11.4613C16.9233 11.3819 16.867 11.2869 16.8331 11.1831C16.7992 11.0793 16.7887 10.9694 16.8022 10.8611C16.8452 10.687 17.0856 10.5535 17.3057 10.3311Z" fill="white"/>
</svg>
