<svg width="24" height="16" viewBox="0 0 24 16" fill="none" xmlns="http://www.w3.org/2000/svg">
<path d="M23.0132 11.1636C22.7286 12.1873 21.9669 12.7909 21.1095 13.2987C19.7804 14.0845 18.3228 14.5266 16.8215 14.8373C14.3095 15.3568 11.7725 15.4515 9.2226 15.2296C7.28278 15.0604 5.38261 14.697 3.5712 13.9543C2.63798 13.5721 1.75151 13.1093 1.03487 12.3761C0.566192 11.8968 0.309364 11.3429 0.32475 10.6505C0.350788 9.61786 0.331853 8.58345 0.331853 7.55022V7.3431C0.759111 7.64431 1.15619 7.96209 1.587 8.22247C3.0173 9.08763 4.59082 9.57702 6.21404 9.92084C8.86221 10.4818 11.54 10.5913 14.2296 10.3534C16.4363 10.1587 18.5915 9.72438 20.629 8.81483C21.4616 8.44379 22.2433 7.98635 22.9215 7.36972C22.95 7.3478 22.98 7.32802 23.0114 7.31055L23.0132 11.1636Z" fill="white"/>
<path d="M23.0132 5.09497C22.7919 5.98795 22.1681 6.56019 21.4415 7.0413C20.2958 7.79936 19.0152 8.24318 17.6991 8.58759C17.3784 8.67103 17.0482 8.73021 16.731 8.81542C16.5611 8.86099 16.4499 8.81542 16.3268 8.69292C14.9906 7.34724 13.6504 6.0059 12.3063 4.66889C11.0328 3.3954 9.75894 2.12251 8.48466 0.850206C8.42327 0.798211 8.35732 0.751859 8.2876 0.711727L8.33139 0.627701C8.8486 0.582134 9.36462 0.525914 9.88242 0.492775C11.4223 0.388967 12.9682 0.418468 14.503 0.580948C16.6925 0.817656 18.8229 1.27213 20.7982 2.30418C21.014 2.41666 21.2236 2.54072 21.4261 2.67581C22.1498 3.15988 22.7741 3.72798 23.0132 4.61031V5.09497Z" fill="white"/>
<path d="M15.0397 9.09783C14.474 9.14873 13.9319 9.21204 13.3875 9.244C10.7872 9.3949 8.21125 9.23157 5.67789 8.59305C4.35706 8.25989 3.08179 7.80718 1.9308 7.05445C1.45739 6.74614 1.02717 6.3893 0.701696 5.92121C0.212894 5.21937 0.209935 4.50097 0.701696 3.8015C1.15795 3.15055 1.79469 2.71205 2.47701 2.33746C3.80375 1.61254 5.23702 1.19652 6.70875 0.89768C6.74992 0.892385 6.79175 0.895814 6.83151 0.907743C6.87127 0.919671 6.90808 0.939835 6.93954 0.96692C9.62617 3.64566 12.31 6.32835 14.9912 9.01499C15.0095 9.04124 15.0258 9.06895 15.0397 9.09783Z" fill="white"/>
</svg>
