<svg width="24" height="16" viewBox="0 0 24 16" fill="none" xmlns="http://www.w3.org/2000/svg">
<g opacity="0.7">
<path d="M23.1531 11.5791C22.8685 12.6028 22.1068 13.2065 21.2494 13.7142C19.9203 14.5001 18.4627 14.9421 16.9614 15.2528C14.4493 15.7724 11.9124 15.867 9.36249 15.6451C7.42267 15.4759 5.5225 15.1125 3.71109 14.3699C2.77787 13.9876 1.8914 13.5248 1.17477 12.7916C0.706085 12.3123 0.449257 11.7584 0.464643 11.066C0.490681 10.0334 0.471746 8.99897 0.471746 7.96574V7.75862C0.899003 8.05984 1.29608 8.37761 1.72689 8.63799C3.1572 9.50316 4.73071 9.99255 6.35394 10.3364C9.0021 10.8974 11.6799 11.0068 14.3695 10.769C16.5762 10.5743 18.7314 10.1399 20.7689 9.23036C21.6015 8.85932 22.3832 8.40188 23.0614 7.78525C23.0898 7.76333 23.1199 7.74355 23.1513 7.72607L23.1531 11.5791Z" fill="#5C5D61"/>
<path d="M23.1531 5.5105C22.9318 6.40348 22.308 6.97572 21.5813 7.45683C20.4357 8.21488 19.1551 8.65871 17.839 9.00312C17.5183 9.08656 17.188 9.14574 16.8709 9.23095C16.701 9.27652 16.5898 9.23095 16.4667 9.10845C15.1305 7.76277 13.7903 6.42142 12.4462 5.08442C11.1727 3.81093 9.89883 2.53804 8.62455 1.26573C8.56317 1.21374 8.49721 1.16739 8.42749 1.12725L8.47128 1.04323C8.98849 0.997662 9.50451 0.941442 10.0223 0.908303C11.5622 0.804494 13.1081 0.833995 14.6428 0.996476C16.8324 1.23318 18.9628 1.68766 20.9381 2.71971C21.1539 2.83219 21.3635 2.95624 21.566 3.09134C22.2897 3.57541 22.914 4.1435 23.1531 5.02583V5.5105Z" fill="#5C5D61"/>
<path d="M15.1796 9.51324C14.6138 9.56413 14.0718 9.62745 13.5274 9.65941C10.9271 9.81031 8.35115 9.64698 5.81778 9.00846C4.49695 8.67529 3.22169 8.22259 2.07069 7.46986C1.59728 7.16155 1.16706 6.80471 0.841589 6.33662C0.352787 5.63478 0.349828 4.91637 0.841589 4.2169C1.29784 3.56596 1.93459 3.12746 2.6169 2.75287C3.94365 2.02795 5.37691 1.61193 6.84864 1.31309C6.88981 1.30779 6.93164 1.31122 6.9714 1.32315C7.01117 1.33508 7.04797 1.35524 7.07943 1.38233C9.76607 4.06107 12.4499 6.74376 15.131 9.43039C15.1494 9.45665 15.1657 9.48435 15.1796 9.51324Z" fill="#5C5D61"/>
</g>
</svg>
