<svg width="15" height="19" viewBox="0 0 15 19" fill="none" xmlns="http://www.w3.org/2000/svg">
<path d="M6.41773 18.762C6.23837 18.7382 6.05808 18.7162 5.87872 18.6897C3.81554 18.3749 2.19574 17.3494 1.1113 15.5704C-0.177217 13.4578 -0.240819 11.2555 0.819826 9.0226C0.914625 8.8251 1.02382 8.63485 1.14653 8.45338C2.99664 5.70217 4.84842 2.95218 6.70188 0.203406C6.72888 0.16314 6.7577 0.124702 6.79706 0.0693359C6.83641 0.121956 6.87256 0.165425 6.90413 0.212097C7.70366 1.3972 8.50364 2.58185 9.30408 3.76604C9.37729 3.87402 9.37775 3.94541 9.30408 4.05339C8.73822 4.88251 8.17648 5.71437 7.61885 6.54898C5.90434 9.10084 7.33013 12.5889 10.3414 13.1965C11.3879 13.4075 12.3858 13.2469 13.3215 12.7248C13.3531 12.7069 13.3847 12.6882 13.4172 12.6722C13.4368 12.6685 13.4567 12.6673 13.4767 12.6685C13.4474 12.8863 13.4309 13.1027 13.3851 13.3128C12.9376 15.4212 11.7649 16.9935 9.86689 18.0115C9.0857 18.427 8.22566 18.673 7.34294 18.7336C7.28911 18.7403 7.23566 18.7498 7.18279 18.762H6.41773Z" fill="white"/>
<path d="M11.2047 3.20605L11.6792 3.9098C12.4168 5.004 13.1544 6.0982 13.892 7.1924C15.1984 9.13936 13.9662 11.8514 11.6403 12.1511C9.82197 12.3854 8.18936 11.1151 7.99626 9.30225C7.91619 8.55275 8.07268 7.84627 8.49456 7.21528C9.36394 5.91578 10.2402 4.62223 11.1141 3.32594C11.137 3.29254 11.1636 3.26096 11.2047 3.20605Z" fill="white"/>
</svg>
