<svg width="15" height="20" viewBox="0 0 15 20" fill="none" xmlns="http://www.w3.org/2000/svg">
<path d="M6.87623 19.1682C6.69686 19.1444 6.51658 19.1225 6.33721 19.0959C4.27403 18.7811 2.65423 17.7557 1.56979 15.9767C0.281279 13.8641 0.217677 11.6618 1.27832 9.42885C1.37312 9.23135 1.48232 9.0411 1.60503 8.85963C3.45513 6.10842 5.30692 3.35843 7.16038 0.609656C7.18738 0.56939 7.2162 0.530952 7.25555 0.475586C7.2949 0.528206 7.33105 0.571675 7.36263 0.618347C8.16215 1.80345 8.96213 2.9881 9.76258 4.17229C9.83579 4.28027 9.83625 4.35166 9.76258 4.45964C9.19672 5.28876 8.63497 6.12062 8.07735 6.95523C6.36284 9.50709 7.78862 12.9951 10.7999 13.6028C11.8463 13.8137 12.8443 13.6531 13.78 13.131C13.8116 13.1132 13.8432 13.0944 13.8757 13.0784C13.8953 13.0747 13.9152 13.0735 13.9351 13.0748C13.9059 13.2926 13.8894 13.509 13.8436 13.719C13.3961 15.8275 12.2234 17.3997 10.3254 18.4178C9.54419 18.8333 8.68416 19.0793 7.80143 19.1398C7.74761 19.1466 7.69416 19.1561 7.64129 19.1682H6.87623Z" fill="#818487"/>
<path d="M11.6632 3.6123L12.1377 4.31605C12.8753 5.41025 13.6129 6.50445 14.3505 7.59865C15.6569 9.54561 14.4247 12.2576 12.0988 12.5573C10.2805 12.7916 8.64786 11.5214 8.45476 9.7085C8.37469 8.959 8.53118 8.25252 8.95305 7.62153C9.82244 6.32203 10.6987 5.02848 11.5726 3.73219C11.5955 3.69879 11.6221 3.66721 11.6632 3.6123Z" fill="#818487"/>
</svg>
