<svg width="19" height="20" viewBox="0 0 19 20" fill="none" xmlns="http://www.w3.org/2000/svg">
<path d="M17.3318 1.1816L9.7754 8.73796L2.21904 1.1816C2.0373 1.01529 1.7984 0.925508 1.55211 0.930966C1.30582 0.936423 1.07113 1.03669 0.896931 1.21089C0.722734 1.38509 0.622462 1.61978 0.617005 1.86607C0.611548 2.11236 0.701326 2.35126 0.867636 2.533L8.42016 10.0894L0.865719 17.6438C0.773426 17.7318 0.699647 17.8373 0.64872 17.9542C0.597792 18.071 0.570744 18.1969 0.569165 18.3244C0.567586 18.4519 0.591509 18.5784 0.639526 18.6965C0.687543 18.8146 0.758686 18.9219 0.848772 19.0121C0.938859 19.1024 1.04607 19.1736 1.16411 19.2218C1.28214 19.27 1.40862 19.2941 1.53611 19.2927C1.66359 19.2913 1.78951 19.2645 1.90646 19.2137C2.02341 19.1629 2.12904 19.0893 2.21712 18.9971L9.7754 11.4427L17.3318 18.999C17.5135 19.1654 17.7524 19.2551 17.9987 19.2497C18.245 19.2442 18.4797 19.144 18.6539 18.9698C18.8281 18.7956 18.9283 18.5609 18.9338 18.3146C18.9393 18.0683 18.8495 17.8294 18.6832 17.6476L11.1268 10.0913L18.6832 2.533C18.7755 2.44505 18.8492 2.33953 18.9002 2.22265C18.9511 2.10577 18.9781 1.97989 18.9797 1.8524C18.9813 1.72492 18.9574 1.59841 18.9094 1.48031C18.8613 1.3622 18.7902 1.25489 18.7001 1.16467C18.61 1.07446 18.5028 1.00316 18.3848 0.954978C18.2667 0.906794 18.1403 0.882693 18.0128 0.884091C17.8853 0.885489 17.7594 0.912359 17.6424 0.96312C17.5255 1.01388 17.4199 1.08751 17.3318 1.17968V1.1816Z" fill="#3F9AA2"/>
</svg>
