<svg width="22" height="18" viewBox="0 0 22 18" fill="none" xmlns="http://www.w3.org/2000/svg">
<g opacity="0.7">
<path d="M0.587891 7.796C0.636825 6.99713 0.621495 6.18824 0.748843 5.40175C1.02594 3.692 2.06654 2.54174 3.58822 1.79298C4.64415 1.27416 5.77436 1.0118 6.93758 0.916876C10.0936 0.659233 13.1139 1.21166 16.0034 2.49634C18.3145 3.52573 19.8846 5.24905 20.7654 7.60911C20.9976 8.25353 21.1138 8.934 21.1085 9.61896C21.1156 10.7391 21.1032 11.854 20.8403 12.9506C20.5638 14.1015 20.098 15.1503 19.1977 15.9574C18.3375 16.731 17.3023 17.0588 16.1667 17.0947C14.4876 17.1472 12.9724 16.616 11.5563 15.7564C10.803 15.2952 10.1032 14.7519 9.46979 14.1363C9.07831 13.7589 8.66797 13.4011 8.26117 13.0391C7.61264 12.4619 6.81789 12.3381 5.99485 12.3622C4.38473 12.4082 2.89371 12.0333 1.52531 11.1772C0.927484 10.8034 0.627392 10.2675 0.627981 9.56236C0.627981 8.97279 0.627981 8.38322 0.627981 7.79364L0.587891 7.796ZM20.4299 9.5541C20.381 9.20036 20.371 8.83306 20.2772 8.48816C19.6635 6.15287 18.2774 4.41657 16.1207 3.34061C13.7348 2.15085 11.1796 1.61965 8.52235 1.56659C7.09323 1.5377 5.68651 1.68863 4.35054 2.23575C2.90019 2.82945 1.83307 3.79281 1.44984 5.37463C1.20871 6.36924 1.33547 7.30902 2.04708 8.07605C2.64065 8.71712 3.39827 9.1836 4.23793 9.42499C4.93834 9.63075 5.65939 9.64078 6.37984 9.64726C7.694 9.66023 8.89142 10.0275 9.9273 10.8429C10.4163 11.2313 10.8828 11.6472 11.3246 12.0887C12.0745 12.8321 12.907 13.4488 13.8757 13.8721C14.8968 14.3178 15.9451 14.5077 17.0529 14.207C18.5486 13.8008 20.4423 11.8776 20.4299 9.5541Z" fill="#5C5D61"/>
<path d="M15.9285 13.6959C15.0035 13.6458 14.1751 13.3298 13.4234 12.8351C12.8877 12.4742 12.3769 12.0775 11.8947 11.6477C11.2031 11.044 10.5729 10.3678 9.77871 9.88843C8.70656 9.2309 7.46741 8.8968 6.21003 8.92624C5.37284 8.94216 4.53565 8.91328 3.78866 8.4882C3.35155 8.24761 2.94681 7.95242 2.58417 7.60973C2.03999 7.07912 1.96335 6.3793 2.11251 5.66002C2.39904 4.2592 3.32585 3.41965 4.58871 2.89434C5.7484 2.41325 6.97235 2.26703 8.21517 2.2747C10.8895 2.29062 13.4624 2.79588 15.8655 3.99979C17.811 4.97553 19.0739 6.54909 19.5798 8.67568C20.0685 10.7356 18.7832 12.9613 16.8153 13.5332C16.5264 13.6169 16.2233 13.6428 15.9285 13.6959ZM15.4622 7.57082C14.4699 7.56669 13.7053 8.33255 13.7041 9.33305C13.7041 10.3241 14.4511 11.087 15.4368 11.1018C16.4226 11.1165 17.1949 10.3548 17.2055 9.35015C17.2125 9.11762 17.1725 8.88608 17.0878 8.66941C17.0032 8.45273 16.8756 8.25539 16.7128 8.08923C16.55 7.92306 16.3553 7.7915 16.1404 7.70241C15.9255 7.61333 15.6948 7.56857 15.4622 7.57082Z" fill="#5C5D61"/>
<path d="M15.4486 8.2765C15.5884 8.27595 15.7268 8.303 15.856 8.35609C15.9853 8.40918 16.1027 8.48726 16.2017 8.58586C16.3007 8.68446 16.3792 8.80163 16.4328 8.93065C16.4864 9.05968 16.514 9.19802 16.514 9.33773C16.5123 9.61643 16.401 9.88328 16.2042 10.0806C16.0074 10.278 15.7409 10.39 15.4622 10.3925C15.3225 10.393 15.1841 10.366 15.0548 10.3129C14.9256 10.2598 14.8081 10.1817 14.7091 10.0831C14.6102 9.98451 14.5316 9.86733 14.478 9.73831C14.4244 9.60928 14.3968 9.47095 14.3969 9.33123C14.3985 9.05253 14.5098 8.78569 14.7066 8.58833C14.9034 8.39098 15.17 8.27897 15.4486 8.2765Z" fill="#5C5D61"/>
</g>
</svg>
