<svg width="19" height="17" viewBox="0 0 19 17" fill="none" xmlns="http://www.w3.org/2000/svg">
<g clip-path="url(#clip0_2_1479)">
<path d="M17.1104 9.43259C17.068 9.46879 17.0347 9.51364 17.013 9.5638C16.9912 9.61396 16.9816 9.66815 16.9848 9.72235C16.9884 11.6624 16.9892 13.6024 16.9873 15.5424C16.9873 15.964 16.7887 16.1527 16.3447 16.1527C13.5704 16.1527 10.7964 16.1534 8.02266 16.1547C7.83886 16.1566 7.65823 16.109 7.50158 16.0172C5.79623 15.0391 4.0899 14.0631 2.3826 13.0892C2.11913 12.9397 2.00562 12.7471 2.00562 12.4537C2.01274 10.5353 2.00771 8.61686 2.01274 6.69843C2.01653 6.63138 2.00433 6.56438 1.97705 6.50249C1.94977 6.44059 1.90812 6.38542 1.85524 6.34112C1.33208 5.86151 0.996143 5.28558 0.94923 4.58455C0.898966 3.83956 1.17793 3.19969 1.69105 2.65054C2.41108 1.87997 3.34097 1.44272 4.36175 1.16375C5.48222 0.857999 6.62364 0.780466 7.78432 0.892374C9.056 1.01467 10.223 1.40755 11.3129 2.04783C12.9314 2.99825 14.5683 3.9199 16.196 4.85633C16.8285 5.22043 17.3785 5.66687 17.7358 6.30035C17.8723 6.54956 17.969 6.81682 18.0227 7.0933C18.0277 7.11808 18.0227 7.14726 18.0566 7.15805V7.79753C17.9854 7.88585 18.0001 7.99736 17.9729 8.09608C17.8225 8.62125 17.5205 9.05929 17.1104 9.43259ZM16.457 6.33792C15.894 5.77838 15.1907 5.44625 14.4242 5.23362C12.8011 4.78359 11.183 4.81197 9.58461 5.34273C8.93285 5.55896 8.33052 5.8667 7.86265 6.3675C7.16607 7.11249 7.19246 7.9542 7.93386 8.66162C8.055 8.77902 8.18251 8.89028 8.31586 8.99495C8.35467 9.02315 8.38548 9.06014 8.40552 9.10257C8.42556 9.145 8.43419 9.19153 8.43063 9.23795C8.42728 11.146 8.43063 13.0536 8.42477 14.9613C8.42477 15.094 8.44697 15.1371 8.60069 15.1363C9.79237 15.1287 10.9845 15.1319 12.1762 15.1319C13.3678 15.1319 14.5599 15.1291 15.7516 15.1359C15.8944 15.1359 15.9192 15.0992 15.9192 14.9705C15.9145 13.0624 15.9171 11.1548 15.9133 9.24714C15.9097 9.19816 15.9187 9.14908 15.9396 9.10421C15.9605 9.05933 15.9926 9.02003 16.0331 8.98975C16.2002 8.8575 16.3578 8.71462 16.5047 8.5621C17.1657 7.86067 17.1427 7.02136 16.4574 6.33792H16.457Z" fill="#E78738"/>
</g>
<defs>
<clipPath id="clip0_2_1479">
<rect width="19" height="17" fill="white" transform="matrix(-1 0 0 1 19 0)"/>
</clipPath>
</defs>
</svg>
