<svg width="12" height="17" viewBox="0 0 12 17" fill="none" xmlns="http://www.w3.org/2000/svg">
<g clip-path="url(#clip0_2_1425)">
<path d="M9.61717 0.113205C8.7492 0.325195 7.88047 0.535342 7.01097 0.743651C6.57345 0.847652 6.13823 0.961316 5.69932 1.0598C5.49835 1.10581 5.48587 1.1256 5.48541 1.32992C5.48541 1.93276 5.48541 2.5356 5.48541 3.13843C5.48541 3.49415 5.47524 3.50658 5.12458 3.50658H0.892566C0.842669 3.50658 0.792772 3.50658 0.742875 3.50658C0.572393 3.5121 0.553451 3.52821 0.552989 3.70216C0.552989 4.27738 0.552989 4.85261 0.552989 5.42783C0.552989 5.51665 0.556685 5.605 0.552989 5.69336C0.548369 5.8153 0.60658 5.86408 0.723931 5.85902C0.773828 5.85672 0.823725 5.85902 0.874084 5.85902H11.1353C11.4467 5.85902 11.4472 5.85902 11.4472 5.55162V3.77532C11.4472 3.5075 11.4472 3.5052 11.1801 3.50474H6.88345C6.52586 3.50474 6.51385 3.49507 6.51385 3.1458C6.51385 2.83625 6.51385 2.52655 6.51385 2.21669C6.51385 1.94058 6.53602 1.91251 6.81045 1.84486C7.79638 1.60051 8.78047 1.34741 9.76732 1.11548C10.0907 1.03955 10.0907 1.03679 10.0016 0.721563C9.94843 0.537491 9.90592 0.346517 9.85649 0.159224C9.84263 0.106303 9.82507 0.0515403 9.86296 0H9.79643C9.78164 0.1017 9.68601 0.0961788 9.61717 0.113205Z" fill="#E78738"/>
<path d="M9.7287 0.0329076C8.35068 0.365158 6.9725 0.696795 5.59417 1.02782C5.47359 1.05635 5.42739 1.095 5.42878 1.22938C5.43755 1.91551 5.42877 2.60164 5.43616 3.28731C5.43616 3.42076 5.41168 3.46079 5.26846 3.46033C3.73551 3.45389 2.20256 3.45757 0.66961 3.45389C0.547639 3.45389 0.498202 3.47184 0.50005 3.61173C0.508058 4.32532 0.508058 5.03906 0.50005 5.75295C0.50005 5.87582 0.528231 5.90896 0.654822 5.9085C4.22031 5.90481 7.78595 5.90481 11.3517 5.9085C11.4691 5.9085 11.4987 5.87766 11.4977 5.7617C11.4922 5.05348 11.4894 4.34526 11.4977 3.6375C11.4977 3.47644 11.446 3.45343 11.3028 3.45343C9.77537 3.45803 8.24796 3.45343 6.72056 3.45988C6.58657 3.45988 6.55839 3.42168 6.56116 3.29605C6.56917 2.89723 6.56917 2.4984 6.56116 2.09958C6.56116 1.98223 6.59443 1.94312 6.70808 1.91551C7.81136 1.64814 8.91233 1.37203 10.0147 1.10237C10.1039 1.08074 10.1565 1.06509 10.1251 0.955109C10.0327 0.637124 9.95047 0.31638 9.86407 -0.00298499C9.82619 0.0485553 9.84375 0.103315 9.85761 0.156236C9.90704 0.343529 9.95001 0.532665 10.0027 0.718578C10.0923 1.0338 10.0951 1.03656 9.76844 1.11249C8.77927 1.34258 7.79519 1.59752 6.81157 1.84188C6.53714 1.90952 6.51635 1.93852 6.51496 2.21371C6.51496 2.52356 6.51496 2.83326 6.51496 3.14281C6.51496 3.49209 6.52467 3.50175 6.88457 3.50175H11.1813C11.446 3.50175 11.4478 3.50451 11.4483 3.77234V5.54772C11.4483 5.85466 11.4483 5.85512 11.1364 5.85512H0.873814C0.823455 5.85512 0.773558 5.85236 0.723661 5.85512C0.606311 5.86018 0.5481 5.8091 0.55272 5.68945C0.556416 5.60109 0.55272 5.51274 0.55272 5.42393C0.55272 4.8487 0.55272 4.27347 0.55272 3.69825C0.55272 3.5243 0.572123 3.50819 0.742605 3.50267C0.792502 3.50267 0.842399 3.50267 0.892296 3.50267H5.12431C5.47497 3.50267 5.48468 3.49209 5.48514 3.13453C5.48514 2.53169 5.48514 1.92885 5.48514 1.32601C5.48514 1.12169 5.49808 1.10053 5.69905 1.05589C6.13796 0.95741 6.57318 0.843746 7.0107 0.739745C7.8802 0.532663 8.74893 0.322514 9.6169 0.109296C9.68574 0.0922697 9.77906 0.0977937 9.79893 -0.00390625C9.78461 0.0301471 9.75504 0.0264651 9.7287 0.0329076Z" fill="#E78738"/>
<path d="M10.5049 6.83595C8.99462 6.84377 7.48385 6.84055 5.97354 6.84055C4.45167 6.84055 2.92997 6.84055 1.40842 6.84055C1.32017 6.84055 1.25318 6.82905 1.27304 6.96572C1.41165 7.89483 1.54009 8.82485 1.67176 9.75488C1.96067 11.7898 2.24927 13.8247 2.53757 15.8596C2.64013 16.5844 3.06287 16.9958 3.7277 16.9972C5.22708 17 6.72646 17 8.22583 16.9972C8.82645 16.9972 9.27506 16.6364 9.36654 16.0465C9.54349 14.9112 9.69919 13.7727 9.86181 12.6351C10.1282 10.7637 10.3945 8.89311 10.6606 7.02324C10.68 6.88841 10.6699 6.83503 10.5049 6.83595Z" fill="#E78738"/>
</g>
<defs>
<clipPath id="clip0_2_1425">
<rect width="11" height="17" fill="white" transform="translate(0.5)"/>
</clipPath>
</defs>
</svg>
