<svg width="17" height="16" viewBox="0 0 17 16" fill="none" xmlns="http://www.w3.org/2000/svg">
<g clip-path="url(#clip0_2_1466)">
<path d="M8.12145 3.73916C6.38781 4.70405 5.04418 6.04314 4.09827 7.82874C4.08509 7.81614 4.04509 7.78208 4.00736 7.74382C3.11782 6.82139 2.221 5.90643 1.34236 4.97373C0.566452 4.14882 0.310997 3.16293 0.640997 2.0646C0.970997 0.966266 1.71827 0.288324 2.81418 0.0629653C3.75372 -0.130199 4.60327 0.121754 5.28963 0.809495C6.24418 1.76272 7.16872 2.74861 8.10554 3.72049C8.11736 3.72936 8.12554 3.74429 8.12145 3.73916ZM1.99418 4.32145C1.94009 4.36344 1.85781 4.39564 1.85327 4.4367C1.84509 4.51182 1.85827 4.61586 1.90554 4.66625C2.26191 5.04699 2.62918 5.41652 2.99145 5.79118C3.08236 5.8845 3.17872 5.94189 3.28236 5.83177C3.386 5.72166 3.31918 5.63208 3.23691 5.54623C2.876 5.17809 2.51782 4.80763 2.15645 4.43996C2.10529 4.39639 2.05105 4.35678 1.99418 4.32145ZM1.71736 4.08816C1.69918 3.94445 1.51691 3.74522 1.40963 3.73869C1.30236 3.73216 1.19918 3.81428 1.23554 3.89406C1.29145 4.01537 1.40645 4.11709 1.51645 4.19827C1.54372 4.21787 1.64827 4.12735 1.71736 4.08769V4.08816Z" fill="#E78738"/>
<path d="M8.9165 7.21989C9.40287 6.70665 9.91241 6.15795 10.4292 5.61905C10.8271 5.20442 11.23 4.79491 11.6379 4.39054C12.4488 3.58662 13.4129 3.31741 14.487 3.65474C15.5692 3.99395 16.2342 4.77454 16.4451 5.91906C16.6201 6.86529 16.3788 7.7238 15.727 8.41434C14.7956 9.40022 13.8301 10.352 12.8788 11.3179C12.8674 11.33 12.8515 11.337 12.8579 11.3328C11.9306 9.54207 10.6065 8.16845 8.9165 7.21989ZM10.7774 6.68332C10.8352 6.6505 10.8901 6.61256 10.9415 6.56994C11.3079 6.19668 11.6688 5.82341 12.0356 5.45015C12.122 5.36243 12.1683 5.26632 12.0688 5.1646C11.9692 5.06289 11.876 5.11794 11.792 5.20519C11.5451 5.46088 11.2965 5.7147 11.0483 5.96945C10.9242 6.09683 10.7933 6.21767 10.6806 6.35485C10.6613 6.38388 10.6479 6.41661 10.6412 6.45108C10.6344 6.48555 10.6346 6.52106 10.6415 6.55548C10.6515 6.60447 10.7238 6.63666 10.7774 6.68332ZM12.5979 4.47546C12.4588 4.49786 12.237 4.69382 12.2592 4.79087C12.2756 4.86272 12.3615 4.91731 12.4165 4.9775C12.5183 4.87952 12.631 4.79087 12.7124 4.67749C12.7306 4.6551 12.6388 4.54638 12.5979 4.47639V4.47546Z" fill="#E78738"/>
<path d="M8.49365 7.51245C8.67002 7.56564 8.81183 7.5913 8.94092 7.65243C9.42092 7.87405 9.83229 8.20346 10.2268 8.55386C10.98 9.22247 11.6623 9.95827 12.1923 10.8294C12.3137 11.0291 12.3982 11.254 12.49 11.4714C12.5173 11.5353 12.5114 11.6142 12.5291 11.7513C12.3341 11.687 12.1677 11.6641 12.0359 11.582C11.6837 11.3627 11.3268 11.1425 11.0068 10.8784C10.1582 10.1785 9.41183 9.37784 8.82956 8.42835C8.70729 8.22912 8.6232 8.00423 8.53138 7.78634C8.50411 7.71915 8.51002 7.64029 8.49365 7.51245Z" fill="#E78738"/>
<path d="M4.51483 8.25136C4.48165 8.17811 4.42665 8.11465 4.43938 8.07453C4.49255 7.88566 4.56412 7.70277 4.65301 7.52863C5.14165 6.65565 5.80483 5.93012 6.54029 5.27831C6.93301 4.93071 7.36574 4.62883 7.79529 4.32835C7.95483 4.21684 8.15392 4.16038 8.34074 4.09506C8.45301 4.0568 8.52529 4.11419 8.48119 4.2425C8.42592 4.42478 8.35504 4.60168 8.26938 4.77113C7.78983 5.62824 7.14347 6.34631 6.41938 6.98553C5.99256 7.36253 5.51756 7.6854 5.05256 8.01201C4.9071 8.11745 4.72347 8.16178 4.51483 8.25136Z" fill="#E78738"/>
<path d="M7.31424 11.7084C7.37242 11.7089 7.42992 11.7212 7.48346 11.7446C7.537 11.768 7.58553 11.802 7.62627 11.8446C7.667 11.8872 7.69915 11.9377 7.72088 11.9931C7.7426 12.0485 7.75348 12.1078 7.75288 12.1675C7.75025 12.288 7.70126 12.4026 7.6166 12.4862C7.53194 12.5698 7.4185 12.6155 7.30106 12.6135C7.18648 12.6098 7.07773 12.5608 6.99752 12.4767C6.91731 12.3927 6.87184 12.28 6.87061 12.1624C6.87085 12.0418 6.91771 11.9262 7.00089 11.8411C7.08408 11.756 7.19678 11.7083 7.31424 11.7084Z" fill="#E78738"/>
<path d="M8.8428 15.5773C8.84316 15.6324 8.83293 15.6871 8.8127 15.7382C8.79248 15.7893 8.76264 15.8358 8.72491 15.8751C8.68717 15.9143 8.64228 15.9455 8.59278 15.967C8.54328 15.9884 8.49016 15.9997 8.43643 16C8.32819 15.9992 8.22462 15.9547 8.14808 15.8761C8.07154 15.7975 8.02818 15.6912 8.02734 15.5801C8.02895 15.4718 8.07127 15.3683 8.14548 15.2912C8.21968 15.2142 8.32002 15.1696 8.42552 15.1667C8.53387 15.1645 8.63867 15.2064 8.7169 15.2834C8.79513 15.3604 8.84041 15.4661 8.8428 15.5773Z" fill="#E78738"/>
<path d="M9.47892 13.9045C9.37582 13.9045 9.2768 13.8632 9.20288 13.7894C9.12897 13.7156 9.08597 13.6151 9.08301 13.5094C9.08263 13.4035 9.12275 13.3017 9.19476 13.2258C9.26676 13.15 9.36488 13.1062 9.46801 13.1039C9.57124 13.1031 9.6706 13.1441 9.74461 13.218C9.81862 13.2919 9.86132 13.3927 9.86347 13.4986C9.86385 13.6045 9.8238 13.7063 9.75191 13.7822C9.68002 13.858 9.58201 13.902 9.47892 13.9045Z" fill="#E78738"/>
<path d="M7.58443 9.14682C7.58089 9.22553 7.54746 9.29969 7.4913 9.35341C7.43514 9.40714 7.36072 9.43615 7.28398 9.43423C7.20737 9.42942 7.13565 9.394 7.08417 9.33557C7.03268 9.27714 7.00553 9.20035 7.00852 9.12162C7.01348 9.04574 7.04632 8.97463 7.10041 8.92266C7.1545 8.87069 7.2258 8.84174 7.29989 8.84167C7.37697 8.84363 7.45016 8.87683 7.50348 8.934C7.55679 8.99118 7.5859 9.06769 7.58443 9.14682Z" fill="#E78738"/>
<path d="M5.48464 10.6576C5.40792 10.6542 5.33556 10.6201 5.28311 10.5625C5.23067 10.5049 5.20233 10.4285 5.20419 10.3497C5.20819 10.271 5.2423 10.1972 5.29908 10.1442C5.35586 10.0913 5.43072 10.0635 5.50737 10.0669C5.58106 10.072 5.65014 10.1055 5.70074 10.1607C5.75134 10.216 5.77969 10.2888 5.7801 10.3646C5.77784 10.4434 5.74568 10.5181 5.69048 10.5729C5.63527 10.6276 5.5614 10.658 5.48464 10.6576Z" fill="#E78738"/>
<path d="M5.18324 14.8151C5.0546 14.7959 4.97415 14.7255 4.96688 14.5888C4.96607 14.5582 4.97145 14.5279 4.98268 14.4996C4.99391 14.4713 5.01075 14.4458 5.03212 14.4245C5.05349 14.4033 5.07894 14.3869 5.10683 14.3763C5.13472 14.3657 5.16446 14.3611 5.19415 14.3629C5.32597 14.376 5.40415 14.4563 5.40097 14.593C5.39779 14.7297 5.31279 14.7983 5.18324 14.8151Z" fill="#E78738"/>
</g>
<defs>
<clipPath id="clip0_2_1466">
<rect width="16" height="16" fill="white" transform="translate(0.5)"/>
</clipPath>
</defs>
</svg>
