<svg width="18" height="11" viewBox="0 0 18 11" fill="none" xmlns="http://www.w3.org/2000/svg">
<g clip-path="url(#clip0_2_1431)">
<path d="M0.606677 8.69896C0.651135 8.77335 0.715394 8.83372 0.792177 8.87321C0.86896 8.9127 0.955194 8.92975 1.0411 8.92241C1.0908 8.92241 1.1405 8.92241 1.19065 8.92241C1.32022 8.92241 1.39211 8.98542 1.41784 9.11681C1.47942 9.47219 1.62899 9.80619 1.85272 10.0879C2.28937 10.6242 2.8405 10.933 3.54473 10.9326C7.15152 10.9326 10.7579 10.9192 14.3642 10.9411C15.3289 10.9469 16.3207 10.2975 16.5696 9.19814C16.6287 8.93626 16.6442 8.93 16.9171 8.92464C16.9615 8.92464 17.0058 8.92464 17.0502 8.92017C17.1477 8.91298 17.2397 8.87216 17.3108 8.80459C17.3818 8.73702 17.4276 8.64683 17.4403 8.54924C17.4527 8.45446 17.4337 8.3582 17.3862 8.27544C17.3387 8.19267 17.2653 8.12805 17.1776 8.09162C17.0796 8.0525 16.9758 8.03058 16.8705 8.02682C16.8039 8.02235 16.7374 8.02413 16.6713 8.02413H1.33797C1.24395 8.0219 1.14987 8.02504 1.05619 8.03352C0.860058 8.05676 0.692321 8.12603 0.590703 8.3106C0.572509 8.34367 0.550322 8.37942 0.501953 8.37406V8.60779C0.565853 8.60466 0.581383 8.65784 0.606677 8.69896Z" fill="#E78738"/>
<path d="M1.13776 8.99001C1.16483 8.98733 1.19323 8.9927 1.22029 8.99001C1.3157 8.9775 1.35031 9.0137 1.36717 9.1147C1.45451 9.6383 1.72291 10.1139 2.1249 10.4574C2.52688 10.8009 3.03654 10.9902 3.56373 10.9917C7.18826 10.9988 10.8122 10.9988 14.4356 10.9917C14.9151 10.9894 15.3811 10.8317 15.7647 10.542C16.1483 10.2522 16.4291 9.84579 16.5656 9.38284C16.6015 9.26084 16.5869 9.1004 16.6614 9.01951C16.7475 8.92611 16.913 8.9994 17.0435 8.98421C17.1656 8.9724 17.2792 8.9158 17.3627 8.82517C17.4461 8.73454 17.4936 8.61619 17.4961 8.49262C17.4973 8.37178 17.4548 8.25462 17.3765 8.16306C17.2982 8.07151 17.1894 8.01184 17.0705 7.99522C16.9993 7.98634 16.9275 7.98261 16.8558 7.98405C11.6151 7.98405 6.37472 7.98285 1.13465 7.98047C0.830237 7.98047 0.610137 8.07655 0.496094 8.37061C0.544019 8.37597 0.566206 8.34023 0.584843 8.30716C0.686462 8.12259 0.854198 8.05331 1.05033 8.03007C1.14401 8.02159 1.23809 8.01846 1.33212 8.02069H16.6654C16.732 8.02069 16.7985 8.02069 16.8646 8.02337C16.9699 8.02714 17.0738 8.04906 17.1717 8.08817C17.2595 8.1246 17.3328 8.18923 17.3803 8.272C17.4278 8.35476 17.4469 8.45102 17.4344 8.5458C17.4217 8.64339 17.376 8.73357 17.3049 8.80115C17.2339 8.86872 17.1418 8.90954 17.0444 8.91673C17 8.92164 16.9556 8.9203 16.9112 8.9212C16.6383 8.92566 16.6228 8.93281 16.5638 9.1947C16.3148 10.2927 15.3213 10.9421 14.3583 10.9376C10.752 10.9157 7.14567 10.9282 3.53888 10.9291C2.83465 10.9291 2.28351 10.6203 1.84687 10.0845C1.62464 9.80423 1.47574 9.47234 1.41377 9.11917C1.38803 8.98778 1.31614 8.92656 1.18657 8.92477C1.13643 8.92477 1.08673 8.92075 1.03703 8.92477C0.951117 8.93211 0.864883 8.91507 0.7881 8.87557C0.711317 8.83608 0.647053 8.77571 0.602594 8.70132C0.577301 8.6611 0.558219 8.60703 0.496094 8.60971C0.613687 8.90064 0.830684 9.01951 1.13776 8.99001Z" fill="#E78738"/>
<path d="M11.3221 3.62709C11.2715 3.0336 11.2449 2.4361 11.1552 1.84842C10.9932 0.788375 10.1084 0.0313275 9.05141 0.000938278C8.00593 -0.0294509 7.10468 0.681122 6.86728 1.7291C6.76832 2.16528 6.76921 2.61352 6.73105 3.05684C6.62233 4.31621 6.51982 5.57601 6.41021 6.83538C6.39912 6.96319 6.43196 6.99313 6.55798 6.99224C7.37093 6.98598 8.18432 6.98912 8.9986 6.98912H11.3225C11.6114 6.98912 11.6056 6.98911 11.5794 6.69058C11.4907 5.66942 11.409 4.64825 11.3221 3.62709Z" fill="#E78738"/>
<path d="M4.05376 1.8102C3.92064 2.20972 3.8168 2.61953 3.70275 3.02531C3.34568 4.29719 2.98876 5.56892 2.63199 6.8405C2.60048 6.95223 2.61158 6.99468 2.7416 6.99021C3.00119 6.98038 3.26123 6.98709 3.52126 6.98709C4.10228 6.98709 4.683 6.98709 5.26342 6.98709C5.34329 6.98709 5.40631 6.99602 5.41562 6.87491C5.51207 5.64266 5.61235 4.411 5.71649 3.17994C5.75598 2.70846 5.79148 2.23653 5.84606 1.76684C5.90419 1.2681 6.0919 0.813158 6.37013 0.387709C6.33685 0.380559 6.31643 0.37475 6.29558 0.372069C5.36726 0.242914 4.36438 0.88109 4.05376 1.8102Z" fill="#E78738"/>
<path d="M14.3226 3.11219C14.1832 2.6206 14.0869 2.11606 13.8832 1.64636C13.5047 0.77178 12.5143 0.222093 11.6348 0.395043C11.7945 0.642446 11.9246 0.907948 12.0226 1.18605C12.1744 1.62893 12.1939 2.09103 12.2316 2.55134C12.3488 3.98142 12.4703 5.41463 12.5866 6.84694C12.5959 6.9609 12.6283 6.99531 12.7428 6.99486C13.5948 6.98995 14.4468 6.99218 15.2988 6.99174C15.3303 6.99174 15.3623 6.98905 15.4035 6.98682C15.3907 6.92962 15.3822 6.88135 15.3694 6.83443C15.0201 5.59204 14.6744 4.35145 14.3226 3.11219Z" fill="#E78738"/>
</g>
<defs>
<clipPath id="clip0_2_1431">
<rect width="17" height="11" fill="white" transform="translate(0.5)"/>
</clipPath>
</defs>
</svg>
