<svg width="20" height="21" viewBox="0 0 20 21" fill="none" xmlns="http://www.w3.org/2000/svg">
<g opacity="0.7">
<path d="M19.5631 10.5737C19.2584 12.8034 18.3806 14.7266 16.9058 16.3726C16.1201 17.2526 15.1857 17.9501 14.1801 18.5568C13.9304 18.6978 13.689 18.8531 13.4572 19.022C13.3567 19.111 13.2899 19.2319 13.2681 19.3643C13.2367 19.5551 13.2631 19.7572 13.2586 19.9508C13.253 20.1988 13.1289 20.3274 12.8803 20.3274C10.8922 20.3296 8.90405 20.3296 6.91591 20.3274C6.66786 20.3274 6.5444 20.1983 6.53935 19.9497C6.53542 19.7678 6.53093 19.5855 6.53935 19.4036C6.54945 19.2033 6.45461 19.0804 6.29298 18.9771C5.67566 18.5809 5.0359 18.2111 4.44945 17.7717C2.05818 15.9798 0.664722 13.589 0.244385 10.631C0.245604 10.6177 0.248047 10.6045 0.251681 10.5917C0.300505 10.6214 0.345964 10.6478 0.387493 10.6747C1.24051 11.2674 2.20578 11.5929 3.19966 11.842C5.75087 12.4812 8.34866 12.6575 10.9683 12.5789C12.7552 12.5228 14.528 12.3398 16.2705 11.9257C17.2807 11.6855 18.2695 11.3869 19.1629 10.8369C19.2881 10.7617 19.4076 10.6764 19.5631 10.5737Z" fill="#5C5D61"/>
<path d="M8.88791 6.55276C9.78583 6.56623 10.6804 6.55276 11.5744 6.59822C13.579 6.69418 15.5634 6.93493 17.467 7.60444C17.9642 7.77898 18.4412 8.02534 18.9036 8.28125C19.1281 8.40584 19.3223 8.61011 19.4861 8.81383C19.7106 9.09443 19.7134 9.38962 19.4861 9.66292C19.3005 9.8891 19.0811 10.0854 18.8357 10.2449C17.9799 10.7887 17.0174 11.0687 16.041 11.2926C13.5958 11.8538 11.1147 11.993 8.61461 11.901C6.80643 11.8342 5.01564 11.6316 3.2619 11.1714C2.51663 10.975 1.78258 10.7399 1.11644 10.3437C0.856737 10.1928 0.617882 10.0087 0.405958 9.79592C0.0540863 9.43451 0.0692387 9.05177 0.405958 8.67689C0.731453 8.31548 1.15179 8.091 1.58447 7.89458C2.6833 7.39961 3.84835 7.13753 5.02855 6.93213C5.09758 6.91978 5.16548 6.90463 5.23395 6.8906L5.22834 6.88723C5.26426 6.93887 5.30074 6.98993 5.33553 7.04212C5.60322 7.44394 5.60322 7.67796 5.33553 8.0809C5.23508 8.23186 5.12844 8.38002 5.03697 8.53604C4.93742 8.6972 4.87615 8.87904 4.85786 9.06758C4.83957 9.25612 4.86475 9.44635 4.93146 9.62364C5.0611 9.9901 5.35854 10.2151 5.59199 10.448L6.10829 9.98337C5.97361 9.86159 5.84398 9.75552 5.72725 9.63598C5.48817 9.39074 5.46067 9.12641 5.64082 8.83796C5.74464 8.6696 5.85464 8.51022 5.96407 8.34803C6.12457 8.10952 6.22278 7.84295 6.19247 7.55899C6.16554 7.30308 6.09651 7.05391 6.0432 6.78229L6.62011 6.7228L6.61506 6.71888C6.75704 6.95121 6.89566 7.18691 7.04213 7.41532C7.27166 7.77112 7.27334 8.02815 7.03596 8.38619C6.96637 8.49114 6.90015 8.59833 6.82663 8.69991C6.26936 9.47155 6.53649 10.2438 7.30477 10.7842L7.78684 10.3313C7.64654 10.1989 7.50624 10.0805 7.38502 9.94857C7.17457 9.72409 7.14876 9.46089 7.30421 9.19825C7.36358 9.09508 7.42937 8.99574 7.50119 8.90082C8.01637 8.24141 8.00627 7.53373 7.50456 6.89958C7.44902 6.81954 7.39788 6.73655 7.35135 6.65097L8.21728 6.59822L8.21111 6.59204C8.21405 6.87447 8.30465 7.14901 8.47038 7.37772C8.55849 7.50399 8.63874 7.63531 8.72685 7.76102C8.95133 8.0809 8.94572 8.3963 8.72348 8.71506C8.61125 8.87556 8.49901 9.03606 8.40023 9.20555C8.14321 9.64945 8.13422 10.1035 8.41594 10.535C8.56691 10.7646 8.78016 10.9531 9.00015 11.1995C9.07004 11.1046 9.14498 11.0136 9.22463 10.9267C9.31713 10.8451 9.41378 10.7683 9.51421 10.6967C9.33631 10.535 9.20555 10.429 9.08882 10.3094C8.84975 10.0636 8.82338 9.79929 9.00408 9.50971C9.10454 9.34977 9.21453 9.196 9.31555 9.03662C9.65226 8.50573 9.65377 7.97334 9.32004 7.43945C9.22351 7.28512 9.10341 7.14426 9.0226 6.98264C8.95638 6.85019 8.93281 6.69586 8.89016 6.55164L8.88791 6.55276ZM14.6683 9.8223L15.1823 9.32732C14.9808 9.14157 14.8018 8.94234 14.5902 8.78689C14.3924 8.64508 14.1541 8.57089 13.9108 8.57533C13.6674 8.57978 13.432 8.66264 13.2394 8.81158C13.1414 8.891 13.0477 8.97568 12.9588 9.06525C12.7175 9.28973 12.4571 9.28973 12.2158 9.06525C12.1446 8.99846 12.0783 8.9255 12.0037 8.86265C11.6024 8.52593 11.0429 8.47599 10.6209 8.76893C10.3964 8.92607 10.2062 9.13652 9.96205 9.35763C10.0564 9.42744 10.1469 9.50238 10.2331 9.58211C10.3098 9.66923 10.3819 9.76027 10.4492 9.85485C10.6254 9.67471 10.7483 9.5417 10.8796 9.41656C11.1108 9.19544 11.3723 9.196 11.6058 9.41207C11.6827 9.48334 11.7523 9.56359 11.8303 9.63037C12.1827 9.9222 12.5806 10.0069 13.0043 9.82904C13.1751 9.75077 13.3308 9.64285 13.4639 9.51028C13.8304 9.16514 14.0436 9.15953 14.4017 9.52262C14.4954 9.61017 14.5757 9.71623 14.6655 9.82118L14.6683 9.8223ZM10.5154 11.1804C10.613 11.062 10.7023 10.9357 10.8089 10.8263C11.122 10.507 11.3521 10.5227 11.6889 10.8229C11.8662 10.9812 12.0755 11.1344 12.2978 11.2057C12.7826 11.3611 13.1794 11.1602 13.5189 10.8055C13.7995 10.5115 14.0582 10.5182 14.3489 10.8055C14.4662 10.9178 14.5841 11.0345 14.6761 11.1237L15.1767 10.6748C14.9915 10.4985 14.8271 10.315 14.6363 10.1663C14.4277 10.003 14.169 9.91686 13.9042 9.92258C13.6393 9.92831 13.3846 10.0255 13.1833 10.1977C13.1025 10.264 13.0318 10.3425 12.9555 10.4144C12.7209 10.6327 12.4611 10.6349 12.2259 10.4194C12.1647 10.3633 12.1086 10.2999 12.0463 10.2432C11.6569 9.88852 11.1041 9.80771 10.6703 10.0849C10.4228 10.2426 10.218 10.4677 9.99684 10.6602L10.5154 11.1804ZM4.42358 10.0378C3.52567 8.88734 2.63784 9.10116 1.98349 9.98561L2.43244 10.4907C2.55984 10.3526 2.6732 10.2196 2.79722 10.0978C3.04135 9.85766 3.30904 9.85485 3.55092 10.0945C3.67887 10.2213 3.79055 10.365 3.91065 10.5019C3.97967 10.4458 4.00661 10.4239 4.0313 10.4003L4.42358 10.0378ZM15.8782 10.4811C15.996 10.3554 16.1105 10.2241 16.234 10.1023C16.4871 9.85373 16.7548 9.8498 17.0028 10.1023C17.128 10.2297 17.2312 10.3784 17.3396 10.5086L17.8491 10.021C17.1011 8.99509 16.1655 8.99397 15.4057 10.0053L15.8782 10.4811Z" fill="#5C5D61"/>
<path d="M5.23846 6.88951C5.15372 6.75314 5.05663 6.62294 4.98592 6.47928C4.73899 5.97925 4.84337 5.42366 5.26652 4.99828C5.44834 4.81532 5.5763 4.62283 5.50279 4.31642L4.19744 4.53079V3.53018L4.89444 3.38146C4.89444 3.07785 4.84674 2.78434 4.90791 2.51609C4.96908 2.24784 5.13969 2.00203 5.27045 1.73041L4.73562 1.61817L4.19519 1.50593V0.501953L6.28903 0.857751C8.28072 1.19784 10.2735 1.54073 12.2647 1.87352C12.4027 1.89653 12.5554 1.85332 12.6979 1.82526C14.8776 1.38977 17.0569 0.952781 19.2359 0.514298C19.262 0.512209 19.2883 0.512209 19.3144 0.514298L19.9806 1.84546L16.1914 2.4914L16.1886 2.54247L19.9772 3.19009C19.7488 3.64859 19.5283 4.08801 19.3066 4.53304L16.7251 4.01674C15.3064 3.73277 13.8888 3.44207 12.4673 3.17494C12.2714 3.1379 12.0537 3.2002 11.8499 3.23106C10.9122 3.38483 9.97497 3.54477 9.03721 3.70359C8.99538 3.71398 8.95415 3.72673 8.91374 3.74175C8.96089 3.83154 8.9968 3.91011 9.04226 3.98475C9.16853 4.18622 9.31445 4.37758 9.42444 4.58635C9.68259 5.07964 9.57147 5.63972 9.17414 6.0769C9.05236 6.21102 8.98165 6.39117 8.88793 6.55055L8.89298 6.54606L8.21562 6.58815L8.22179 6.59432C8.22179 6.22337 8.37331 5.92088 8.62978 5.66105C8.95303 5.33443 8.9665 5.09985 8.71901 4.71318C8.54279 4.43988 8.37724 4.15928 8.19037 3.85455L7.58034 3.95669C7.62019 4.0274 7.6488 4.08184 7.68023 4.13403C7.99899 4.66773 7.94512 5.27102 7.50514 5.71156C7.23352 5.9843 7.10894 6.26209 7.3278 6.64595L6.61957 6.71498L6.62462 6.71891C6.44111 6.20036 6.54661 5.74466 6.92542 5.35014C7.30423 4.95562 7.28964 4.50217 6.8693 4.1301C6.84495 4.1074 6.8128 4.09494 6.77951 4.0953C6.5758 4.12729 6.37264 4.16545 6.17005 4.20137C6.26209 4.70925 6.11056 5.10602 5.76879 5.44499C5.47304 5.73793 5.45452 5.99272 5.68405 6.3429C5.77721 6.48489 5.87149 6.62687 5.98317 6.79523L5.23285 6.88446L5.23846 6.88951ZM6.96751 2.06881L6.60161 1.99025C6.02975 1.86959 6.03424 1.87296 5.70369 2.35783C5.56765 2.53776 5.50724 2.76369 5.53533 2.9875C5.56676 3.21198 5.61222 3.24228 5.83052 3.19851C5.91858 3.17707 6.00776 3.16059 6.09765 3.14912C6.37825 3.12667 6.57355 3.04755 6.63248 2.71083C6.67064 2.49028 6.84349 2.29441 6.96751 2.06713V2.06881ZM8.64606 2.40553L8.18756 2.31126C7.70717 2.21305 7.70661 2.21248 7.43723 2.61879C7.38112 2.70073 7.33622 2.78715 7.2627 2.91342C7.64881 2.83541 7.96756 2.76078 8.29025 2.71083C8.46984 2.68052 8.58377 2.60308 8.64606 2.40273V2.40553Z" fill="#5C5D61"/>
</g>
</svg>
