<svg width="17" height="14" viewBox="0 0 17 14" fill="none" xmlns="http://www.w3.org/2000/svg">
<path d="M16.9279 11.6876C16.8933 11.0525 16.8642 10.4169 16.8217 9.78261C16.7667 8.97129 16.7142 8.15831 16.638 7.3499C16.6138 7.09668 16.5905 6.84345 16.5909 6.58772C16.594 4.50528 16.594 2.42284 16.5909 0.340391C16.5909 0.279584 16.5939 0.218354 16.5909 0.157547C16.588 0.0967396 16.5934 0.0276061 16.5185 0.00511568C16.4435 -0.0173747 16.4035 0.038848 16.3673 0.0850783C16.2077 0.290929 16.0645 0.509015 15.9391 0.737306C15.4911 1.5311 15.218 2.41153 15.1382 3.31954C15.0816 3.97093 15.0966 4.62523 15.0966 5.27703C15.0966 5.59815 15.0924 5.91967 15.0966 6.24079C15.1037 6.65478 15.2357 6.81055 15.6438 6.87136C15.7879 6.89301 15.8313 6.97131 15.8246 7.09751C15.8063 7.44569 15.7742 7.79263 15.7459 8.13873C15.7134 8.53606 15.6842 8.93324 15.6584 9.3303C15.628 9.78843 15.6097 10.2466 15.5701 10.7047C15.5501 10.9309 15.546 11.1587 15.5385 11.3844C15.5243 11.788 15.4802 12.1907 15.4931 12.5956C15.498 12.8182 15.5642 13.0352 15.6842 13.2228C15.9583 13.6493 16.4897 13.6485 16.7671 13.2228C16.8228 13.1335 16.869 13.0386 16.905 12.9396C16.925 12.8871 16.9241 12.8147 17.007 12.8067V11.8426C16.9171 11.8267 16.9312 11.748 16.9279 11.6876Z" fill="#E78738"/>
<path d="M8.75981 0.808977C7.26798 0.813054 5.83858 1.40822 4.78471 2.46412C3.73084 3.52002 3.13841 4.95057 3.13721 6.4424C3.13721 9.55024 5.66738 12.0825 8.7723 12.0788C11.9014 12.0579 14.4007 9.56606 14.4024 6.43615C14.4066 3.31873 11.8635 0.80148 8.75981 0.808977ZM8.76397 10.7172C7.63351 10.7141 6.55026 10.2636 5.75091 9.46422C4.95155 8.66486 4.50106 7.58161 4.49788 6.45115C4.48705 4.10215 6.41039 2.17464 8.76897 2.17214C11.1275 2.16964 13.0521 4.09757 13.0492 6.44781C13.0463 8.79806 11.1138 10.7252 8.76397 10.7172Z" fill="#E78738"/>
<path d="M2.77791 0.829707C2.76583 0.635624 2.66671 0.53025 2.51052 0.535664C2.35434 0.541078 2.26063 0.654781 2.27021 0.849281C2.30103 1.51316 2.33518 2.17663 2.3685 2.84052C2.38016 3.07833 2.39516 3.31573 2.40432 3.55396C2.41182 3.74513 2.30478 3.88008 2.14026 3.89549C1.97575 3.9109 1.8533 3.78927 1.83165 3.59644C1.82332 3.51939 1.8254 3.44151 1.82373 3.36405C1.80846 2.66601 1.79291 1.96825 1.77709 1.27077C1.77292 1.10418 1.76917 0.937573 1.75293 0.77306C1.75126 0.739628 1.74288 0.706881 1.7283 0.676747C1.71372 0.646614 1.69324 0.619714 1.66807 0.597649C1.6429 0.575584 1.61355 0.558797 1.58176 0.548293C1.54998 0.537789 1.51641 0.533778 1.48304 0.536498C1.33644 0.543161 1.24856 0.624379 1.22191 0.767651C1.21618 0.815876 1.21423 0.864476 1.21607 0.913005C1.19414 1.78763 1.17221 2.66226 1.15027 3.53688C1.14444 3.76429 1.01991 3.90506 0.844151 3.89298C0.668392 3.88091 0.570518 3.74304 0.580097 3.52147C0.599811 3.08416 0.619802 2.64712 0.640072 2.21036C0.663395 1.75667 0.686439 1.30312 0.709207 0.849698C0.710817 0.811132 0.7076 0.772515 0.699629 0.734747C0.692805 0.675997 0.663482 0.622181 0.617817 0.584593C0.572152 0.547005 0.513699 0.528566 0.454733 0.533162C0.329787 0.533162 0.242741 0.596055 0.218168 0.723501C0.204403 0.799618 0.195638 0.876557 0.191929 0.95382C0.126957 1.99254 0.0669823 3.0321 -0.00215487 4.07083C-0.0438038 4.69264 0.16444 5.1891 0.687134 5.53728C1.0349 5.76885 1.1636 6.08579 1.10779 6.4927C1.08197 6.68429 1.0728 6.87838 1.05323 7.07121C0.956186 8.01331 0.894129 8.95791 0.83582 9.90334C0.780844 10.7875 0.727117 11.6722 0.710874 12.5585C0.703499 12.7472 0.74134 12.935 0.821243 13.1061C0.957435 13.3868 1.15443 13.5997 1.48763 13.6022C1.81249 13.6042 2.0124 13.3977 2.14901 13.1249C2.25313 12.9166 2.27854 12.693 2.27021 12.4631C2.23397 11.4727 2.17775 10.4831 2.11694 9.49351C2.05447 8.48227 1.97117 7.47257 1.86705 6.46439C1.8254 6.07455 1.9441 5.7701 2.27396 5.55103C2.78346 5.21228 3.01947 4.73706 2.98199 4.12538C2.91313 3.02696 2.8451 1.9284 2.77791 0.829707Z" fill="#E78738"/>
<path d="M8.77138 3.30872C7.05461 3.30872 5.64396 4.71687 5.64063 6.43572C5.6373 8.15457 7.03379 9.55564 8.7643 9.5723C10.4794 9.58812 11.903 8.16415 11.8988 6.43613C11.897 5.60723 11.567 4.81279 10.9808 4.22667C10.3947 3.64055 9.60028 3.31048 8.77138 3.30872Z" fill="#E78738"/>
</svg>
