<svg width="14" height="14" viewBox="0 0 14 14" fill="none" xmlns="http://www.w3.org/2000/svg">
<path d="M9.17288 3.51862C8.89941 3.55492 8.62208 3.5745 8.35439 3.63039C7.30143 3.84867 6.3178 4.22504 5.49546 4.93816C4.24366 6.02526 3.5595 7.38652 3.51135 9.04583C3.51135 9.08165 3.50509 9.117 3.50172 9.15378C1.97596 8.82421 -0.00959438 7.23702 3.48896e-05 4.62913C0.0091827 2.20417 1.9177 0.170392 4.31924 0.00990643C6.6789 -0.146281 8.66879 1.56748 9.17288 3.51862Z" fill="#E78738"/>
<path d="M6.47192 13.0205L13.0088 6.53516C14.3034 8.07028 14.4498 10.7269 12.705 12.5433C11.0425 14.2753 8.44207 14.5026 6.47192 13.0205Z" fill="#E78738"/>
<path d="M12.1464 5.68758L5.6182 12.1619C4.44487 10.8542 4.05152 8.16604 5.86663 6.21346C7.73134 4.20786 10.5941 4.37647 12.1464 5.68758Z" fill="#E78738"/>
</svg>
