<svg width="17" height="17" viewBox="0 0 17 17" fill="none" xmlns="http://www.w3.org/2000/svg">
<g clip-path="url(#clip0_2_1439)">
<path d="M9.99534 8.35016C10.4052 7.28165 10.254 6.24558 9.46344 5.41905C7.962 3.84831 6.42941 2.30376 4.85448 0.804118C3.30446 -0.672245 0.841363 -0.023244 0.144206 1.99652C0.0806768 2.18111 0.0457973 2.37569 -0.00195312 2.56528V3.26375C0.0329255 3.27332 0.0283588 3.30533 0.032511 3.32986C0.131749 3.97387 0.421989 4.51935 0.881224 4.97835C2.33007 6.42491 3.77892 7.8712 5.22776 9.31721C5.91703 10.0028 6.74913 10.3096 7.71909 10.1649C8.81818 9.99906 9.59797 9.38623 9.99534 8.35016ZM8.22732 9.43778C7.33377 9.82153 6.47924 9.68724 5.76174 9.03159C5.06001 8.39049 4.40811 7.69492 3.7313 7.02638C3.66611 6.96235 3.67483 6.92867 3.73421 6.86922C4.77697 5.83065 5.81765 4.79028 6.85626 3.74811C6.9227 3.68159 6.95882 3.68076 7.02526 3.74811C7.6647 4.39171 8.30995 5.02949 8.94815 5.67433C9.39617 6.12667 9.61873 6.67714 9.63285 7.41012C9.58011 8.29736 9.14621 9.04281 8.22732 9.43778Z" fill="#E78738"/>
<path d="M13.6457 15.5698C14.6309 13.8652 15.6159 12.1606 16.6008 10.456C16.7695 10.1707 16.8879 9.85846 16.9508 9.53298C16.9591 9.49141 16.9396 9.42946 16.999 9.40285V8.70479C16.9405 8.62164 16.9525 8.51853 16.933 8.4254C16.6905 7.2804 15.6894 6.357 14.5247 6.25929C13.323 6.15868 12.39 6.63348 11.7788 7.6787C10.7862 9.37749 9.80169 11.0813 8.82536 12.79C7.91188 14.387 8.64101 16.2824 10.3862 16.8711C10.5411 16.9235 10.7105 16.9194 10.8562 17.0004H11.5206C11.6696 16.9306 11.8366 16.9352 11.9918 16.8874C12.6945 16.6827 13.2886 16.2094 13.6457 15.5698ZM10.999 10.1512C11.4338 9.40909 11.8557 8.65989 12.2945 7.92025C12.7264 7.19184 13.3816 6.83429 14.0995 6.80851C15.8762 6.81599 16.9529 8.56634 16.1823 10.0252C15.7608 10.8243 15.285 11.5947 14.8386 12.3805C14.7755 12.4915 14.7252 12.4221 14.6725 12.3893C13.748 11.8626 12.8238 11.3349 11.9001 10.806C11.6177 10.6447 11.3358 10.4817 11.0505 10.3254C10.9625 10.2789 10.9434 10.2427 10.999 10.1512Z" fill="#E78738"/>
<path d="M8.82397 6.44966C8.49179 5.92497 8.00639 5.53998 7.56792 5.11341C7.44668 4.99533 7.25567 5.05478 7.17304 5.20363C7.09042 5.35247 7.15145 5.47803 7.2619 5.58779C7.54384 5.86926 7.82411 6.15197 8.10729 6.4322C8.23577 6.55404 8.33685 6.70191 8.40379 6.86593C8.47074 7.02996 8.50201 7.20638 8.49553 7.38345C8.48971 7.63956 8.38674 7.86199 8.26217 8.08068C8.24199 8.11242 8.22864 8.14802 8.22295 8.18521C8.21726 8.2224 8.21936 8.26036 8.22912 8.29669C8.23889 8.33302 8.2561 8.36692 8.27966 8.39623C8.30322 8.42554 8.33262 8.44961 8.36598 8.46692C8.49469 8.53927 8.6475 8.49686 8.73968 8.36132C8.94723 8.05835 9.05866 7.69972 9.0594 7.33232C9.05358 7.03172 8.99628 6.72157 8.82397 6.44966Z" fill="#E78738"/>
<path d="M13.5545 13.7408C13.5913 13.6811 13.6037 13.6095 13.5891 13.5409C13.5745 13.4722 13.534 13.4119 13.476 13.3725C13.3577 13.2893 13.2124 13.3059 13.1023 13.4199C13.0765 13.4485 13.0526 13.479 13.0309 13.5109C12.7378 13.9267 12.4376 14.3362 12.1548 14.7582C11.9289 15.0958 11.625 15.2771 11.2218 15.3045C11.0395 15.3166 10.9191 15.4434 10.9282 15.5955C10.9378 15.7618 11.0748 15.8691 11.2915 15.8637C11.796 15.8275 12.2345 15.6142 12.5488 15.1785C12.8196 14.8018 13.0832 14.4206 13.3498 14.041C13.4204 13.9437 13.4955 13.8468 13.5545 13.7408Z" fill="#E78738"/>
<path d="M12.1849 9.92017C12.3066 9.92017 12.3867 9.84742 12.4507 9.74888C12.7389 9.30402 13.0284 8.86054 13.3193 8.41845C13.5066 8.13449 13.7657 7.9661 14.1124 7.9449C14.3279 7.93201 14.4479 7.82516 14.4446 7.65387C14.4413 7.47467 14.3109 7.37572 14.0128 7.38321C13.5743 7.41647 13.1678 7.64098 12.8771 8.06381C12.711 8.30495 12.5545 8.55232 12.3942 8.79721C12.2493 9.01881 12.0994 9.2375 11.9616 9.46242C11.8304 9.67737 11.9549 9.9235 12.1849 9.92017Z" fill="#E78738"/>
</g>
<defs>
<clipPath id="clip0_2_1439">
<rect width="17" height="17" fill="white"/>
</clipPath>
</defs>
</svg>
