<svg width="13" height="16" viewBox="0 0 13 16" fill="none" xmlns="http://www.w3.org/2000/svg">
<path d="M5.82197 15.2007C5.67574 15.1809 5.52913 15.1635 5.38364 15.1419C3.70589 14.8855 2.38831 14.0516 1.50646 12.6053C0.458648 10.887 0.406927 9.09651 1.26943 7.28034C1.34661 7.1199 1.4354 6.96532 1.53511 6.81782C3.03959 4.58106 4.54545 2.3448 6.05266 0.109029C6.07462 0.0762852 6.09806 0.0446509 6.13006 0C6.16243 0.0424184 6.19145 0.077771 6.21713 0.115724C6.86729 1.07944 7.51783 2.04291 8.16875 3.00612C8.22865 3.09394 8.22865 3.15161 8.16875 3.23943C7.70884 3.91366 7.25204 4.59012 6.79833 5.26881C5.40448 7.34434 6.56354 10.1804 9.01228 10.6746C9.86362 10.8461 10.6748 10.7159 11.4357 10.2913C11.4618 10.2768 11.4871 10.2615 11.5135 10.2485C11.5295 10.2451 11.5459 10.244 11.5622 10.2452C11.538 10.4226 11.525 10.5983 11.4878 10.7694C11.1239 12.4837 10.1702 13.7625 8.62679 14.5904C7.99133 14.9281 7.29187 15.1282 6.57396 15.1776C6.53043 15.1809 6.48727 15.1928 6.44373 15.2007H5.82197Z" fill="#E78738"/>
<path d="M9.71509 2.55408L10.1006 3.12599C10.7009 4.01578 11.3007 4.9057 11.9 5.79574C12.9627 7.37899 11.9603 9.58436 10.069 9.82846C8.59026 10.019 7.26264 8.98604 7.10562 7.51182C7.04088 6.90233 7.16813 6.32782 7.51083 5.81471C8.2178 4.75797 8.93035 3.70607 9.64105 2.65193C9.65965 2.6244 9.68123 2.59873 9.71509 2.55408Z" fill="#E78738"/>
</svg>
